<?xml version="1.0" encoding="UTF-8" standalone="no"?>
<svg
   xmlns:dc="http://purl.org/dc/elements/1.1/"
   xmlns:cc="http://creativecommons.org/ns#"
   xmlns:rdf="http://www.w3.org/1999/02/22-rdf-syntax-ns#"
   xmlns:svg="http://www.w3.org/2000/svg"
   xmlns="http://www.w3.org/2000/svg"
   width="640"
   height="640"
   viewBox="0 0 169.33333 169.33334"
   version="1.1"
   id="svg8">
  <defs
     id="defs2">
    <rect
       x="3.9804926"
       y="-137.29098"
       width="170.27429"
       height="39.139292"
       id="rect842" />
    <rect
       x="247.71819"
       y="-79.544594"
       width="325.17978"
       height="329.1283"
       id="rect895" />
    <rect
       x="11.589755"
       y="-250.68578"
       width="522.98303"
       height="542.8233"
       id="rect889" />
    <rect
       x="11.589755"
       y="-250.68578"
       width="522.98303"
       height="542.8233"
       id="rect903" />
    <rect
       x="11.589755"
       y="-250.68578"
       width="522.98303"
       height="542.8233"
       id="rect909" />
    <rect
       x="11.589755"
       y="-250.68578"
       width="522.98303"
       height="542.8233"
       id="rect915" />
    <rect
       x="11.589755"
       y="-250.68578"
       width="522.98303"
       height="542.8233"
       id="rect939" />
    <rect
       x="11.589755"
       y="-250.68578"
       width="522.98303"
       height="542.8233"
       id="rect949" />
    <rect
       x="11.589755"
       y="-250.68578"
       width="522.98303"
       height="542.8233"
       id="rect951" />
    <rect
       x="3.9804926"
       y="-137.29099"
       width="170.27429"
       height="39.139294"
       id="rect842-7" />
    <rect
       x="3.9804926"
       y="-137.29099"
       width="170.27429"
       height="39.139294"
       id="rect1600" />
  </defs>
  <metadata
     id="metadata5">
    <rdf:RDF>
      <cc:Work
         rdf:about="">
        <dc:format>image/svg+xml</dc:format>
        <dc:type
           rdf:resource="http://purl.org/dc/dcmitype/StillImage" />
        <dc:title></dc:title>
      </cc:Work>
    </rdf:RDF>
  </metadata>
  <g
     id="layer1"
     transform="translate(0,274.50003)">
    <text
       xml:space="preserve"
       id="text840"
       style="font-style:normal;font-variant:normal;font-weight:bold;font-stretch:normal;font-size:22.5778px;line-height:125%;font-family:'Gill Sans MT';-inkscape-font-specification:'Gill Sans MT Bold';text-align:center;letter-spacing:0px;word-spacing:0px;white-space:pre;shape-inside:url(#rect842);fill:black;fill-opacity:1;stroke:none;stroke-width:0.264583px;stroke-linecap:butt;stroke-linejoin:miter;stroke-opacity:1;"
       x="34.616322"
       y="0"
       transform="translate(-2.6121053,-0.67696127)"><tspan
         x="39.618005"
         y="-117.52945"><tspan>SOURCE</tspan></tspan></text>
    <path
       id="path3629"
       style="font-variation-settings:normal;vector-effect:none;fill:#4d4d4d;fill-opacity:1;stroke:black;stroke-width:1.32291668;stroke-linecap:butt;stroke-linejoin:miter;stroke-miterlimit:4;stroke-dasharray:none;stroke-dashoffset:0;stroke-opacity:1;stop-color:black"
       d="m 83.517507,-253.28135 a 53.640134,49.861731 0 0 0 -53.520487,49.86209 53.640134,49.861731 0 0 0 53.639892,49.86211 53.640134,49.861731 0 0 0 3.221021,-0.0908 c 0.32384,0.0554 0.654658,0.0908 0.994848,0.0908 h 43.602659 c 3.22499,0 5.82129,-2.59235 5.82129,-5.81245 v -1.78459 c 0,-3.22009 -2.5963,-5.81244 -5.82129,-5.81244 h -11.22073 a 53.640134,49.861731 0 0 0 17.04202,-36.45263 53.640134,49.861731 0 0 0 -53.639818,-49.86209 53.640134,49.861731 0 0 0 -0.119469,0 z" />
  </g>
</svg>
