<?xml version="1.0" encoding="UTF-8" standalone="no"?>
<svg
   xmlns:dc="http://purl.org/dc/elements/1.1/"
   xmlns:cc="http://creativecommons.org/ns#"
   xmlns:rdf="http://www.w3.org/1999/02/22-rdf-syntax-ns#"
   xmlns:svg="http://www.w3.org/2000/svg"
   xmlns="http://www.w3.org/2000/svg"
   xmlns:sodipodi="http://sodipodi.sourceforge.net/DTD/sodipodi-0.dtd"
   xmlns:inkscape="http://www.inkscape.org/namespaces/inkscape"
   width="640"
   height="640"
   viewBox="0 0 169.33333 169.33334"
   version="1.1"
   id="svg8"
   inkscape:version="1.0.2 (e86c870879, 2021-01-15)"
   sodipodi:docname="icon-control-other.svg">
  <defs
     id="defs2">
    <rect
       x="271.26602"
       y="-242.12426"
       width="182.56545"
       height="163.97144"
       id="rect2063" />
    <rect
       x="3.9804926"
       y="-137.29098"
       width="170.27429"
       height="39.139292"
       id="rect842" />
    <rect
       x="247.71819"
       y="-79.544594"
       width="325.17978"
       height="329.1283"
       id="rect895" />
    <rect
       x="11.589755"
       y="-250.68578"
       width="522.98303"
       height="542.8233"
       id="rect889" />
    <rect
       x="11.589755"
       y="-250.68578"
       width="522.98303"
       height="542.8233"
       id="rect903" />
    <rect
       x="11.589755"
       y="-250.68578"
       width="522.98303"
       height="542.8233"
       id="rect909" />
    <rect
       x="11.589755"
       y="-250.68578"
       width="522.98303"
       height="542.8233"
       id="rect915" />
    <rect
       x="11.589755"
       y="-250.68578"
       width="522.98303"
       height="542.8233"
       id="rect939" />
    <rect
       x="11.589755"
       y="-250.68578"
       width="522.98303"
       height="542.8233"
       id="rect949" />
    <rect
       x="11.589755"
       y="-250.68578"
       width="522.98303"
       height="542.8233"
       id="rect951" />
  </defs>
  <sodipodi:namedview
     id="base"
     pagecolor="#ffffff"
     bordercolor="#666666"
     borderopacity="1.0"
     inkscape:pageopacity="0.0"
     inkscape:pageshadow="2"
     inkscape:zoom="0.49497475"
     inkscape:cx="-28.571431"
     inkscape:cy="415.61204"
     inkscape:document-units="px"
     inkscape:current-layer="layer1"
     showgrid="false"
     units="px"
     inkscape:window-width="1366"
     inkscape:window-height="704"
     inkscape:window-x="0"
     inkscape:window-y="27"
     inkscape:window-maximized="1"
     inkscape:document-rotation="0"
     inkscape:snap-global="false" />
  <metadata
     id="metadata5">
    <rdf:RDF>
      <cc:Work
         rdf:about="">
        <dc:format>image/svg+xml</dc:format>
        <dc:type
           rdf:resource="http://purl.org/dc/dcmitype/StillImage" />
        <dc:title></dc:title>
      </cc:Work>
    </rdf:RDF>
  </metadata>
  <g
     inkscape:label="Layer 1"
     inkscape:groupmode="layer"
     id="layer1"
     transform="translate(0,274.50003)">
    <path
       id="path838"
       style="fill:purple;stroke:black;stroke-width:4.99999;stroke-linecap:round;stroke-linejoin:round;stroke-miterlimit:4;stroke-dasharray:none;stroke-opacity:1"
       inkscape:transform-center-x="0.96746032"
       inkscape:transform-center-y="-5.3587042"
       d="M 300.36133 75.908203 C 299.07864 76.045022 109.17053 247.54855 108.9043 248.81055 C 108.63807 250.07254 213.08888 483.65569 214.20703 484.29883 C 214.81203 484.64681 289.2953 476.8825 357.95117 469.52539 L 357.52539 468.0957 C 356.80636 465.68051 351.53622 447.98323 345.81445 428.76758 L 335.41211 393.83008 L 329.36914 394.55078 L 323.32617 395.27344 L 321.87891 383.1875 L 320.43359 371.10156 L 337.9668 369.00391 L 355.50195 366.90625 L 352.27344 362.98047 C 350.49802 360.82134 349.00376 358.70831 348.95312 358.28516 C 348.85588 357.47252 352.83232 356.27398 359.23438 355.18555 L 363.08398 354.53125 L 353.1543 350.64258 C 334.12291 343.19075 325.97385 337.40385 318.72852 326.19336 L 314.49023 319.63477 L 314.5 323.95703 C 314.52721 337.07169 307.45026 346.55651 296.67578 347.8457 C 284.76131 349.27127 267.18876 340.02325 261.72461 329.45312 C 254.98795 316.42139 261.17456 304.68201 279.50781 295.70703 L 284.17578 293.41992 L 276.94336 293.80859 C 262.4871 294.58249 254.91533 292.37773 249.76367 285.89648 C 247.18579 282.65331 246.86588 281.74717 246.13086 275.5918 C 245.37093 269.22787 245.4674 268.43917 247.82422 261.79688 C 250.98098 252.90025 257.62955 244.4472 264.10156 241.10156 C 277.01636 234.42537 288.69059 240.42515 297.49219 258.26172 L 300.22656 263.80273 L 299.73438 255.64648 C 299.46391 251.16022 299.56712 245.64176 299.96484 243.38281 C 301.48948 234.72289 307.03439 227.78344 313.94336 225.88672 C 325.53786 222.70356 342.90321 229.80527 350.63086 240.89062 C 359.98363 254.30723 354.44258 267.4185 335.46094 276.78516 L 329.82812 279.56445 L 337.70508 279.14062 C 353.44815 278.29526 362.5807 282.03726 366.61914 290.98828 C 370.62014 299.85634 367.94019 312.44916 359.83594 322.85938 C 357.34072 326.0646 353.72146 329.68506 351.79492 330.9043 C 347.08471 333.88529 340.40644 335.26308 336.17383 334.12695 L 332.9082 333.25 L 336.35938 335.65625 C 338.25775 336.98003 343.55448 339.59823 348.12891 341.47461 C 352.70333 343.35099 359.25522 346.06224 362.68945 347.49805 C 369.75283 350.45111 369.99086 350.31465 369.29883 343.70312 C 369.03698 341.20142 369.24013 339.95315 369.92578 339.87109 C 371.5484 339.67683 378.90538 343.40239 382.91406 346.44922 C 384.9377 347.9873 386.66994 349.08051 386.76367 348.87891 C 386.8574 348.67746 387.60237 346.66635 388.41992 344.41016 C 389.85864 340.43957 396.5263 330.36139 397.81641 330.20703 C 398.16563 330.16508 399.03332 331.3952 399.74414 332.94141 C 400.45499 334.48754 401.23203 336.01521 401.4707 336.33594 C 401.70919 336.65682 403.64263 333.57934 405.76562 329.49609 C 407.88866 325.41284 411.77467 318.61019 414.40234 314.38086 C 422.21788 301.8015 425.89715 294.57719 428.06055 287.55664 C 428.60937 285.77569 428.01624 286.30143 425.58789 289.75195 C 417.15898 301.7295 404.07407 302.9478 392.21289 292.85938 C 384.00447 285.87772 378.87272 276.01355 378.50195 266.50781 C 377.98571 253.27327 385.99895 246.56437 404.2832 244.92383 C 409.40148 244.46446 413.57879 244.01861 413.56836 243.93164 C 413.55702 243.84471 410.28699 242.55299 406.29883 241.0625 C 393.54553 236.29618 387.04781 229.86247 385.9375 220.90234 C 384.73826 211.22445 390.30882 201.86471 401.69922 194.41602 C 407.26699 190.77501 408.76322 190.16319 414.57617 189.15625 C 423.05864 187.68685 426.98422 188.58998 432.2793 193.22852 C 437.52978 197.82797 438.95684 201.48271 440.3457 213.87695 L 441.4707 223.9043 L 444.12305 216.82812 C 448.76669 204.43978 454.57579 197.97285 462.71289 196.13672 C 469.39691 194.62854 474.3313 196.12283 481.77148 201.91016 C 496.83139 213.62155 501.62302 232.84606 491.99414 242.92969 C 487.52988 247.6047 483.20504 249.21608 471.65234 250.50781 L 461.46484 251.64648 L 468.72656 254.25586 C 489.69436 261.79209 495.59285 277.04318 483.43555 292.28125 C 478.7907 298.10316 472.51545 302.61145 465.5 305.16406 C 451.10612 310.40143 439.74029 304.59375 436.03125 290.10742 L 434.96484 285.94727 L 434.09375 289.22266 C 432.50185 295.19949 428.53502 303.24668 420.86133 316.07031 C 411.6516 331.461 409.95752 334.62976 406.96875 342.03711 C 404.79862 347.41553 404.181 350.54449 405.46094 349.68359 C 410.76482 346.11629 415.24509 343.92764 420.07812 342.54297 C 423.33305 341.61045 426.24596 341.04351 426.55078 341.2832 C 427.41293 341.9611 426.14717 348.0627 423.96094 353.77148 L 421.97852 358.95117 L 442.16016 356.53711 L 462.34375 354.12109 L 463.78906 366.20703 L 465.23633 378.29297 L 457.84375 379.17773 C 450.81708 380.01849 450.44094 380.15175 450.25586 381.86523 C 450.14852 382.85676 449.22149 400.4951 448.19531 421.0625 C 447.18466 441.31857 446.29086 458.41974 446.16797 459.88867 C 460.11902 458.31226 470.5716 457.09313 470.74609 456.93555 C 471.70338 456.07103 524.5187 205.71259 523.99219 204.53516 C 523.46567 203.35772 301.64402 75.771384 300.36133 75.908203 z "
       transform="matrix(0.26458334,0,0,0.26458334,0,-274.50003)" />
    <text
       xml:space="preserve"
       id="text840"
       style="font-style:normal;font-variant:normal;font-weight:bold;font-stretch:normal;font-size:22.5778px;line-height:125%;font-family:'Gill Sans MT';-inkscape-font-specification:'Gill Sans MT Bold';text-align:center;letter-spacing:0px;word-spacing:0px;white-space:pre;shape-inside:url(#rect842);fill:black;fill-opacity:1;stroke:none;stroke-width:0.264583px;stroke-linecap:butt;stroke-linejoin:miter;stroke-opacity:1;"
       x="34.616322"
       y="0"
       transform="translate(-2.6121053,-0.67696127)"><tspan
         x="47.643708"
         y="-117.52945"><tspan>OTHER</tspan></tspan></text>
  </g>
</svg>
