<?xml version="1.0" encoding="UTF-8" standalone="no"?>
<svg
   xmlns:dc="http://purl.org/dc/elements/1.1/"
   xmlns:cc="http://creativecommons.org/ns#"
   xmlns:rdf="http://www.w3.org/1999/02/22-rdf-syntax-ns#"
   xmlns:svg="http://www.w3.org/2000/svg"
   xmlns="http://www.w3.org/2000/svg"
   xmlns:sodipodi="http://sodipodi.sourceforge.net/DTD/sodipodi-0.dtd"
   xmlns:inkscape="http://www.inkscape.org/namespaces/inkscape"
   width="640"
   height="640"
   viewBox="0 0 169.33333 169.33334"
   version="1.1"
   id="svg8"
   inkscape:version="1.0.2 (e86c870879, 2021-01-15)"
   sodipodi:docname="icon-control-string.svg">
  <defs
     id="defs2">
    <rect
       x="271.26602"
       y="-242.12426"
       width="462.46467"
       height="411.25244"
       id="rect2063" />
    <rect
       x="3.9804926"
       y="-137.29098"
       width="170.27429"
       height="39.139292"
       id="rect842" />
    <rect
       x="247.71819"
       y="-79.544594"
       width="325.17978"
       height="329.1283"
       id="rect895" />
    <rect
       x="11.589755"
       y="-250.68578"
       width="522.98303"
       height="542.8233"
       id="rect889" />
    <rect
       x="11.589755"
       y="-250.68578"
       width="522.98303"
       height="542.8233"
       id="rect903" />
    <rect
       x="11.589755"
       y="-250.68578"
       width="522.98303"
       height="542.8233"
       id="rect909" />
    <rect
       x="11.589755"
       y="-250.68578"
       width="522.98303"
       height="542.8233"
       id="rect915" />
    <rect
       x="11.589755"
       y="-250.68578"
       width="522.98303"
       height="542.8233"
       id="rect939" />
    <rect
       x="11.589755"
       y="-250.68578"
       width="522.98303"
       height="542.8233"
       id="rect949" />
    <rect
       x="11.589755"
       y="-250.68578"
       width="522.98303"
       height="542.8233"
       id="rect951" />
  </defs>
  <sodipodi:namedview
     id="base"
     pagecolor="#ffffff"
     bordercolor="#666666"
     borderopacity="1.0"
     inkscape:pageopacity="0.0"
     inkscape:pageshadow="2"
     inkscape:zoom="0.49497475"
     inkscape:cx="-28.571431"
     inkscape:cy="415.61204"
     inkscape:document-units="px"
     inkscape:current-layer="layer1"
     showgrid="false"
     units="px"
     inkscape:window-width="1366"
     inkscape:window-height="704"
     inkscape:window-x="0"
     inkscape:window-y="27"
     inkscape:window-maximized="1"
     inkscape:document-rotation="0"
     inkscape:snap-global="false" />
  <metadata
     id="metadata5">
    <rdf:RDF>
      <cc:Work
         rdf:about="">
        <dc:format>image/svg+xml</dc:format>
        <dc:type
           rdf:resource="http://purl.org/dc/dcmitype/StillImage" />
        <dc:title />
      </cc:Work>
    </rdf:RDF>
  </metadata>
  <g
     inkscape:label="Layer 1"
     inkscape:groupmode="layer"
     id="layer1"
     transform="translate(0,274.50003)">
    <path
       id="path838"
       style="fill:purple;stroke:black;stroke-width:4.99999;stroke-linecap:round;stroke-linejoin:round;stroke-miterlimit:4;stroke-dasharray:none;stroke-opacity:1"
       inkscape:transform-center-x="0.96746032"
       inkscape:transform-center-y="-5.3587042"
       d="M 300.36133 75.908203 C 299.07864 76.045022 109.17053 247.54855 108.9043 248.81055 C 108.63807 250.07254 213.08888 483.65569 214.20703 484.29883 C 215.32518 484.94197 469.78881 457.80006 470.74609 456.93555 C 471.70338 456.07103 524.5187 205.71259 523.99219 204.53516 C 523.46567 203.35772 301.64402 75.771384 300.36133 75.908203 z M 216.79883 221.10938 L 233.06055 238.79883 C 220.41239 250.21071 212.42415 258.15145 209.0957 262.62109 C 205.86233 266.99567 203.24709 272.36861 201.25 278.74023 C 203.05689 277.40883 204.86499 276.45728 206.67188 275.88672 C 208.57384 275.22099 210.47499 274.88867 212.37695 274.88867 C 217.89273 274.88867 222.6959 277.16961 226.78516 281.73438 C 230.96949 286.29911 233.06055 291.81646 233.06055 298.2832 C 233.06055 305.89114 230.3978 312.3086 225.07227 317.53906 C 219.84181 322.67441 213.42236 325.24219 205.81445 325.24219 C 200.2036 325.24219 194.78319 323.67345 189.55273 320.53516 C 184.4174 317.30177 180.37579 312.92783 177.42773 307.41211 C 174.57477 301.80127 173.14844 295.33438 173.14844 288.01172 C 173.14844 275.93416 177.14255 264.14176 185.13086 252.63477 C 193.21429 241.12779 203.77027 230.61927 216.79883 221.10938 z M 287.41016 221.10938 L 303.67188 238.79883 C 291.11883 250.21071 283.1781 258.15145 279.84961 262.62109 C 276.52116 266.99567 273.85841 272.36861 271.86133 278.74023 C 273.66821 277.40883 275.47632 276.45728 277.2832 275.88672 C 279.18517 275.22099 281.08631 274.88867 282.98828 274.88867 C 288.50406 274.88867 293.35473 277.16961 297.53906 281.73438 C 301.72344 286.29911 303.81445 291.81646 303.81445 298.2832 C 303.81445 305.89114 301.15171 312.3086 295.82617 317.53906 C 290.5006 322.67441 284.03369 325.24219 276.42578 325.24219 C 270.81492 325.24219 265.39452 323.67345 260.16406 320.53516 C 255.02873 317.30177 250.98711 312.92783 248.03906 307.41211 C 245.18609 301.80127 243.75977 295.33438 243.75977 288.01172 C 243.75977 275.93416 247.75388 264.14176 255.74219 252.63477 C 263.82561 241.12779 274.38159 230.61927 287.41016 221.10938 z M 372.57227 310.61133 C 378.18308 310.61133 383.60352 312.22758 388.83398 315.46094 C 394.06445 318.59921 398.10602 322.97312 400.95898 328.58398 C 403.81195 334.0997 405.23828 340.51916 405.23828 347.8418 C 405.23828 359.9194 401.24419 371.7118 393.25586 383.21875 C 385.26755 394.72575 374.71158 405.23422 361.58789 414.74414 L 345.46875 397.05664 C 358.02183 385.64471 365.91507 377.75148 369.14844 373.37695 C 372.47693 368.90728 375.18713 363.48689 377.2793 357.11523 C 375.47241 358.35157 373.61681 359.30112 371.71484 359.9668 C 369.81284 360.63247 367.91173 360.96484 366.00977 360.96484 C 360.58911 360.96484 355.7859 358.68388 351.60156 354.11914 C 347.41719 349.55438 345.32617 344.03901 345.32617 337.57227 C 345.32617 329.96435 347.94142 323.5924 353.17188 318.45703 C 358.49741 313.22662 364.96432 310.61133 372.57227 310.61133 z M 443.32422 310.61133 C 448.93508 310.61133 454.30801 312.22758 459.44336 315.46094 C 464.6738 318.59921 468.71735 322.97312 471.57031 328.58398 C 474.51837 334.0997 475.99219 340.51916 475.99219 347.8418 C 475.99219 359.9194 471.95056 371.7118 463.86719 383.21875 C 455.87883 394.72575 445.37036 405.23422 432.3418 414.74414 L 416.08008 397.05664 C 428.63315 385.64471 436.57387 377.75148 439.90234 373.37695 C 443.2308 368.90728 445.89352 363.48689 447.89062 357.11523 C 446.08373 358.35157 444.22813 359.30112 442.32617 359.9668 C 440.51928 360.63247 438.61817 360.96484 436.62109 360.96484 C 431.20042 360.96484 426.39723 358.68388 422.21289 354.11914 C 418.02853 349.55438 415.93555 344.03901 415.93555 337.57227 C 415.93555 329.96435 418.5983 323.5924 423.92383 318.45703 C 429.24941 313.22662 435.71631 310.61133 443.32422 310.61133 z "
       transform="matrix(0.26458334,0,0,0.26458334,0,-274.50003)" />
    <text
       xml:space="preserve"
       id="text840"
       style="font-style:normal;font-variant:normal;font-weight:bold;font-stretch:normal;font-size:22.5778px;line-height:125%;font-family:'Gill Sans MT';-inkscape-font-specification:'Gill Sans MT Bold';text-align:center;letter-spacing:0px;word-spacing:0px;white-space:pre;shape-inside:url(#rect842);fill:black;fill-opacity:1;stroke:none;stroke-width:0.264583px;stroke-linecap:butt;stroke-linejoin:miter;stroke-opacity:1;"
       x="34.616322"
       y="0"
       transform="translate(-2.6121053,-0.67696127)"><tspan
         x="44.071829"
         y="-117.52945"><tspan>STRING</tspan></tspan></text>
  </g>
</svg>
