<?xml version="1.0" encoding="UTF-8" standalone="no"?>
<svg
   xmlns:dc="http://purl.org/dc/elements/1.1/"
   xmlns:cc="http://creativecommons.org/ns#"
   xmlns:rdf="http://www.w3.org/1999/02/22-rdf-syntax-ns#"
   xmlns:svg="http://www.w3.org/2000/svg"
   xmlns="http://www.w3.org/2000/svg"
   xmlns:sodipodi="http://sodipodi.sourceforge.net/DTD/sodipodi-0.dtd"
   xmlns:inkscape="http://www.inkscape.org/namespaces/inkscape"
   width="640"
   height="640"
   viewBox="0 0 169.33333 169.33334"
   version="1.1"
   id="svg8"
   inkscape:version="1.0.2 (e86c870879, 2021-01-15)"
   sodipodi:docname="icon-control-log.svg">
  <defs
     id="defs2">
    <rect
       x="3.9804926"
       y="-137.29098"
       width="170.27429"
       height="39.139292"
       id="rect842" />
    <rect
       x="247.71819"
       y="-79.544594"
       width="325.17978"
       height="329.1283"
       id="rect895" />
    <rect
       x="11.589755"
       y="-250.68578"
       width="522.98303"
       height="542.8233"
       id="rect889" />
    <rect
       x="11.589755"
       y="-250.68578"
       width="522.98303"
       height="542.8233"
       id="rect903" />
    <rect
       x="11.589755"
       y="-250.68578"
       width="522.98303"
       height="542.8233"
       id="rect909" />
    <rect
       x="11.589755"
       y="-250.68578"
       width="522.98303"
       height="542.8233"
       id="rect915" />
    <rect
       x="11.589755"
       y="-250.68578"
       width="522.98303"
       height="542.8233"
       id="rect939" />
    <rect
       x="11.589755"
       y="-250.68578"
       width="522.98303"
       height="542.8233"
       id="rect949" />
    <rect
       x="11.589755"
       y="-250.68578"
       width="522.98303"
       height="542.8233"
       id="rect951" />
  </defs>
  <sodipodi:namedview
     id="base"
     pagecolor="#ffffff"
     bordercolor="#666666"
     borderopacity="1.0"
     inkscape:pageopacity="0.0"
     inkscape:pageshadow="2"
     inkscape:zoom="0.49497475"
     inkscape:cx="634.36359"
     inkscape:cy="591.03172"
     inkscape:document-units="px"
     inkscape:current-layer="layer1"
     showgrid="false"
     units="px"
     inkscape:window-width="1366"
     inkscape:window-height="704"
     inkscape:window-x="0"
     inkscape:window-y="27"
     inkscape:window-maximized="1"
     inkscape:document-rotation="0"
     inkscape:snap-global="false" />
  <metadata
     id="metadata5">
    <rdf:RDF>
      <cc:Work
         rdf:about="">
        <dc:format>image/svg+xml</dc:format>
        <dc:type
           rdf:resource="http://purl.org/dc/dcmitype/StillImage" />
        <dc:title></dc:title>
      </cc:Work>
    </rdf:RDF>
  </metadata>
  <g
     inkscape:label="Layer 1"
     inkscape:groupmode="layer"
     id="layer1"
     transform="translate(0,274.50003)">
    <path
       id="path838"
       style="fill:purple;stroke:black;stroke-width:4.99999;stroke-linecap:round;stroke-linejoin:round;stroke-miterlimit:4;stroke-dasharray:none;stroke-opacity:1"
       inkscape:transform-center-x="0.96746032"
       inkscape:transform-center-y="-5.3587042"
       d="M 300.36133 75.908203 C 299.07864 76.045022 109.17053 247.54855 108.9043 248.81055 C 108.63807 250.07254 213.08888 483.65569 214.20703 484.29883 C 214.46711 484.44842 229.28028 483.00071 250.57422 480.82422 C 250.85394 457.28083 250.94956 433.73463 250.62109 410.19141 C 258.19522 395.69813 263.83997 414.84795 260.71094 420.80664 C 264.08902 421.26464 257.21654 426.33603 262.29297 429.88281 C 256.59983 433.81987 265.63461 434.76637 259.56836 440.49023 C 265.85574 442.60363 255.91593 446.05864 262.5332 450.71094 C 254.09701 452.51037 268.70321 459.11835 258.98828 460.62109 C 267.69903 461.47803 254.34598 469.90784 263.03516 470.6543 C 254.03969 475.011 268.86961 485.11116 267.10352 472.39648 C 267.83666 455.29458 265.18874 438.19421 267.17578 421.03516 C 270.55536 413.07547 260.05956 399.89667 260.38477 399.4375 C 273.798 404.52013 289.43668 386.29188 276.92578 378.41406 C 278.00103 385.0988 272.74613 405.18384 267.48438 390.6875 C 269.57203 380.75728 253.83374 366.36292 271.10352 369.67383 C 277.18768 370.81763 290.70955 370.8282 280.89258 363.27734 C 276.38053 354.76566 277.00665 332.31971 288.69922 346.52344 C 289.23203 359.04656 293.94896 370.01917 289.24414 381.95703 C 301.35058 375.36746 288.74345 360.4649 291.83398 350.22461 C 294.57051 344.84838 289.52203 328.39822 288.19336 340.04102 C 281.37893 341.55003 271.70866 327.39399 272.83203 342.63867 C 273.36599 349.91275 282.117 368.9646 268.20898 366.5957 C 266.69757 360.27029 268.02421 343.40928 257.29102 348.30664 C 266.24467 349.12351 257.46202 356.61296 262.08008 359.02539 C 256.56605 363.80638 266.61131 367.82595 256.15039 368.60938 C 242.6475 360.51775 254.53137 342.89659 250.85547 330.50586 C 250.23259 304.58295 250.64728 278.57048 251.12891 252.72656 C 248.72977 243.28957 247.89611 216.12614 261.375 224.83398 C 260.57332 234.52632 259.23885 244.48024 262.57812 254.91211 C 257.33632 261.45175 277.60097 256.04571 267.40234 250.28125 C 265.44415 242.85856 263.61544 217.62479 275.66992 226.29102 C 278.84654 235.09822 269.61967 251.19337 280.49023 255.29688 C 277.05128 241.48512 276.98655 216.10783 297.68164 220.77539 C 315.50571 217.5922 318.6062 245.47211 308.58398 254.67383 C 306.32141 253.51468 304.80206 250.03191 303.94336 247.24805 C 304.0601 247.88134 304.1478 248.27962 304.28906 249.11914 C 302.01096 256.9761 274.77792 256.433 292.70898 263.55469 C 296.0694 263.37228 300.69452 265.00276 304.63281 267.42578 C 306.11984 256.31226 317.86872 270.96324 309.14453 270.88477 C 313.53458 275.15414 314.66776 280.19 306.39844 282.78516 C 301.24222 281.52053 301.69317 264.57898 296.39844 273.98438 C 297.58322 280.6309 306.07007 282.61373 295.66602 282.91602 C 287.79196 282.11589 280.00866 291.1789 292.4043 291.46289 C 296.03521 290.7386 300.76087 292.54059 304.6582 295.33203 C 306.29432 284.49086 318.13793 299.51584 308.78125 299.02148 C 312.8308 303.63355 313.83499 308.98758 306.70312 311.07227 C 303.17652 307.22425 295.79855 291.32462 297.05664 305.38477 C 313.79927 314.54381 274.2906 308.98596 288.84766 319.16797 C 295.2497 318.54186 300.54466 320.50607 304.60156 323.99219 C 306.00288 311.72967 319.29705 328.96414 307.52539 327.02344 C 313.20912 334.06961 315.32048 344.60443 313.19727 353.67188 C 317.04948 364.65465 303.3732 369.94952 299.50977 373.33008 C 304.87899 380.00994 307.05788 364.51814 315.83398 369.76367 C 321.9429 369.06529 316.84872 364.30595 320.00391 361.58594 C 314.60501 356.97816 322.84217 355.53161 319.61914 351.41797 C 330.72043 344.83135 345.60033 347.34864 356.92773 351.62695 C 353.49357 355.97027 349.10878 354.65264 356.96289 356.82617 C 356.30093 361.47696 349.7418 363.12737 356.91211 366.39844 C 352.2678 370.48872 331.24295 367.47781 346.55273 370.78516 C 354.67492 374.12588 357.11623 381.33835 352.88477 383.92578 C 361.7475 387.17224 355.92479 388.91805 351.50977 390.36523 C 366.8996 399.66918 341.76495 394.02927 336.16797 397.29883 C 329.10693 400.24183 315.30609 395.62909 320.45508 389.61719 C 311.15899 384.58021 328.37809 384.24888 317.65234 380.74609 C 316.93725 375.69937 334.70542 375.57039 320.4082 374.6582 C 305.28984 374.64309 319.83496 404.17248 300.65039 395.85352 C 291.92215 392.08578 280.5121 406.37417 295.83008 403.23047 C 314.31884 401.39369 315.72397 420.1132 313.11328 433.20703 C 313.31399 446.88884 311.80969 460.64036 313.36719 474.27148 C 315.19894 474.07784 317.03375 473.88311 318.88086 473.6875 C 314.19068 469.58867 325.56219 467.8014 316.3418 463.9082 C 328.24062 461.03463 310.19686 457.87341 319.75 454.54297 C 322.91192 453.08127 310.19039 448.26991 321.17383 446.94727 C 314.86283 444.68473 316.57125 441.24788 321.01562 439.30078 C 308.86378 436.32096 328.15231 432.51723 316.91992 429.92383 C 315.84979 425.97645 326.2707 425.78951 316.91992 422.88672 C 315.84981 418.9393 326.27069 418.75435 316.91992 415.85156 C 315.95795 411.8975 325.12507 412.21417 318.17188 408.60352 C 328.05704 401.9452 346.12677 403.18182 357.01367 407.78906 C 355.36206 411.1268 346.99297 411.30946 356.80859 413.70508 C 363.32111 416.2148 344.61808 418.2136 355.23438 420.44727 C 365.84236 423.336 344.33985 425.2719 355.53711 427.41406 C 364.97407 431.36904 343.80995 431.48557 355.25977 434.54102 C 363.69579 438.15443 344.28746 439.21095 355.74609 442.05859 C 364.42837 445.69049 343.67471 445.78805 355.52148 448.95117 C 364.62732 452.62325 344.42838 452.88432 355.85742 456.04102 C 364.08057 460.0387 343.80451 459.76126 355.52148 463.02148 C 364.35308 466.58293 345.70532 466.94574 354.99609 469.84375 C 357.70857 469.55334 360.30782 469.27331 363 468.98438 C 359.47818 460.47234 365.68123 444.93886 363.80469 436.09961 C 361.50368 422.31117 360.85965 399.45145 381.16406 404.00586 C 387.18797 402.0133 394.91808 403.06516 399.70508 406.43945 C 399.92967 406.17919 400.36731 406.32101 401.04297 407.49609 C 401.03869 407.50245 401.03551 407.50546 401.03125 407.51172 C 402.76366 409.1068 403.89859 411.09353 404.11133 413.41992 C 405.69395 412.40103 410.06448 415.68501 404.58203 417.50781 C 404.3114 417.00557 404.10494 416.55669 403.95117 416.1543 C 403.66565 417.5534 403.07835 419.04455 402.11523 420.625 C 404.12167 430.97093 420.43764 425.09705 410.39453 418.10156 C 410.50527 413.39477 427.91705 409.87828 415.50977 410.58203 C 411.84238 399.29731 433.98834 404.98758 440.14844 405.93359 C 445.59466 410.93965 457.5989 416.7549 451.89453 406.19531 C 462.13279 401.33581 472.95463 405.85801 480.94336 410.74219 C 481.84369 406.54569 482.8775 401.68949 483.85352 397.12109 C 482.30875 397.00143 480.81745 396.66271 479.50195 396.09961 C 477.10322 391.80736 482.61265 390.57109 485.42969 389.74414 C 485.5382 389.23525 485.633 388.79348 485.74219 388.28125 C 484.85292 387.97784 483.46337 387.61277 481.27148 387.12695 C 473.58642 383.05387 487.23322 373.4408 475.54492 376.32617 C 465.81302 373.64894 476.04504 368.94383 474.92773 367.91992 C 471.54018 362.25777 484.61695 362.2804 479.9707 356.5918 C 483.96104 353.34002 488.57288 355.65121 491.89062 359.35352 C 492.07081 358.50333 492.25078 357.64865 492.43164 356.79492 C 488.95991 353.30654 485.92288 350.13533 483.67773 349.86523 C 486.53762 346.61277 490.26395 347.62451 494.04297 349.18359 C 494.59384 346.57997 495.12586 344.07986 495.67969 341.45898 C 492.57928 341.40563 489.4737 341.23672 486.42188 341.25195 C 470.86628 334.38043 453.27734 345.87278 438.12695 337.85156 C 453.41484 329.78643 471.52955 336.34453 487.9082 335.1875 C 490.04567 335.11694 493.57799 334.56748 497.2168 334.19531 C 499.8047 321.93447 502.30271 310.04271 504.79688 298.15625 L 502.91211 297.87109 C 501.6098 293.04513 503.53505 291.75081 506.07617 292.07422 C 506.59038 289.62099 507.15275 286.96216 507.65625 284.55664 C 506.25817 284.60628 504.90916 284.38097 503.9668 283.16016 C 503.12287 277.79917 505.97444 276.39516 509.26953 276.80859 C 509.73924 274.56054 510.13165 272.66559 510.58789 270.47852 C 509.66813 270.49313 508.51953 270.40859 507.05078 270.17188 L 504.97461 270.04102 L 502.91211 269.73047 C 500.6939 261.51049 507.8214 263.50343 511.44336 266.36719 C 512.12747 263.08422 512.8175 259.77796 513.46289 256.67188 C 510.45114 257.69155 507.03747 257.42656 504.05078 254.69727 C 503.34941 249.12106 498.35275 235.00654 496.21289 248.32812 C 488.71423 263.36486 464.90524 252.87424 450.54492 255.94141 C 439.10161 255.64434 427.51683 254.79133 416.21094 257.10742 C 399.70381 250.97185 375.2839 263.41774 363.59766 250.33203 C 361.77149 237.72134 361.17995 217.80812 379.15039 221.57812 C 386.14604 220.37088 394.45429 220.40177 399.59766 223.69531 C 399.76877 223.23033 400.23949 223.16907 401.04297 224.56641 C 401.00854 224.61752 400.97864 224.6443 400.94531 224.68945 C 402.58698 226.11211 403.74519 227.99663 404.22461 230.42969 C 405.89177 229.63047 409.935 232.80621 404.58203 234.58594 C 404.52239 234.47525 404.47748 234.37718 404.42383 234.27148 C 404.35288 235.22363 404.20622 236.23266 403.9668 237.31055 C 403.96319 237.42442 403.97275 237.52624 403.97266 237.63672 C 405.38103 236.3402 409.99223 239.57966 404.95117 241.48242 C 408.33366 246.70603 418.821 241.91278 410.75 235.10742 C 410.16739 217.8741 430.0527 220.35728 441.45508 222.81836 C 455.16739 223.35902 468.97017 220.87402 482.5957 223.2832 C 487.85503 236.13942 502.42897 238.58843 515.89648 235.76758 C 516.5822 235.81564 517.19013 235.90137 517.73438 236.01367 C 518.36496 232.94859 518.88453 230.4041 519.42969 227.73438 C 513.52141 227.77843 507.68008 228.65329 516.54688 232.16211 C 512.73156 239.93713 501.86594 232.15817 495.57812 234.37891 C 486.88756 222.87595 497.86843 220.34038 507.16406 222.30078 C 509.76101 221.05901 515.75668 220.98111 520.64258 221.80078 C 522.64996 211.89713 524.07205 204.71375 523.99219 204.53516 C 523.46567 203.35772 301.64402 75.771384 300.36133 75.908203 z M 400.94531 224.68945 C 400.52742 224.32732 400.07335 223.99992 399.59766 223.69531 C 399.32293 224.44186 399.82323 226.20987 400.94531 224.68945 z M 401.03125 407.51172 C 400.61937 407.13249 400.1793 406.77373 399.70508 406.43945 C 399.22264 406.99851 399.73218 409.41938 401.03125 407.51172 z M 341.23047 221.08398 C 347.88356 221.1558 354.06162 222.19699 355.15234 226.14258 C 346.54444 229.71117 365.94101 234.07344 352.04102 234.82031 C 352.77535 237.24363 363.03705 240.96744 352.51953 241.88477 C 352.08365 244.98787 364.4803 248.28739 352.39844 248.79102 C 350.80854 250.98915 363.78709 256.63096 351.61523 255.76367 C 342.53407 254.95705 333.70029 256.8803 324.62695 256.80078 C 319.26843 260.83061 316.77529 252.72321 319.2793 249.7832 C 317.34651 248.6981 318.78146 244.71164 320.14453 242.65039 C 313.84243 241.34364 326.40353 232.32953 318.25391 233.80469 C 322.36871 226.35622 315.84741 222.44552 327.01367 221.76562 C 330.59395 221.5585 336.05584 221.02813 341.23047 221.08398 z M 394.03516 222.69531 C 393.31754 222.76507 394.96161 227.23152 395.66211 224.51953 C 394.77551 223.13688 394.27436 222.67206 394.03516 222.69531 z M 404.70508 223.26953 C 406.52364 223.13604 409.46818 225.92625 404.58203 227.55078 C 402.92854 224.48219 403.61394 223.34963 404.70508 223.26953 z M 303.99219 223.80469 C 302.16461 223.94358 305.34818 226.04097 304.42773 223.80469 C 304.25866 223.79467 304.11403 223.79543 303.99219 223.80469 z M 302.14062 226.5918 C 300.10685 226.40072 299.24966 232.70973 304.02734 228.65234 C 303.37112 227.20964 302.71008 226.6453 302.14062 226.5918 z M 455.07617 226.63672 C 452.19521 226.7441 453.20355 232.25341 458.4043 228.14648 C 456.99444 226.99978 455.88284 226.60665 455.07617 226.63672 z M 290.2168 226.63867 C 288.19683 226.84051 287.43616 232.3582 292.48828 228.74414 C 291.70396 227.09515 290.89012 226.57139 290.2168 226.63867 z M 464.6543 226.66211 C 462.81244 226.5931 462.60453 233.18275 466.53125 228.67578 C 465.81433 227.22257 465.17002 226.68143 464.6543 226.66211 z M 432.0332 226.86328 C 431.54484 226.86626 431.01962 226.88218 430.45508 226.91211 C 426.58034 226.87242 427.00416 229.5752 430.46484 229.2793 C 438.17962 229.60812 439.35871 226.81858 432.0332 226.86328 z M 272.55664 227.04102 C 271.97779 227.14146 271.3065 230.23676 273.01367 228.23828 C 272.93304 227.30659 272.74959 227.00753 272.55664 227.04102 z M 283.39453 227.23047 C 282.07107 227.30019 285.52165 230.05633 284.28125 227.38867 C 283.86971 227.26534 283.5836 227.22051 283.39453 227.23047 z M 295.81055 227.23047 C 294.48708 227.30019 297.93767 230.05633 296.69727 227.38867 C 296.28573 227.26534 295.99961 227.22051 295.81055 227.23047 z M 373.90625 227.38867 C 371.91542 227.34413 372.87937 232.75924 375.76953 228.47852 C 374.9828 227.70056 374.36567 227.39895 373.90625 227.38867 z M 503.17383 227.4082 C 502.83182 227.36729 502.146 232.83044 503.28711 230.76562 C 503.38841 228.28346 503.30766 227.42421 503.17383 227.4082 z M 328.30078 227.41992 C 326.98596 227.47929 329.06694 230.76616 329.81055 228.00781 C 329.08709 227.5637 328.6042 227.40622 328.30078 227.41992 z M 309.21094 227.63086 C 308.81786 227.61716 308.49431 229.09709 309.57812 228.2832 C 309.48145 227.80669 309.34196 227.63543 309.21094 227.63086 z M 416.81641 227.63672 C 416.42333 227.62304 416.09977 229.103 417.18359 228.28906 C 417.08691 227.81255 416.94743 227.64128 416.81641 227.63672 z M 384.86328 227.64258 C 380.2707 227.89805 376.36518 231.31693 389.09375 228.7793 C 388.00059 227.82368 386.39414 227.55742 384.86328 227.64258 z M 472.80078 227.79492 C 469.48077 234.95898 484.86713 239.23322 490.88281 241.83398 C 488.57594 234.27742 476.55166 231.9552 472.80078 227.79492 z M 499.39453 227.87305 C 498.98335 227.67031 498.74059 230.84222 499.69336 228.66016 C 499.59313 228.14672 499.48942 227.91983 499.39453 227.87305 z M 419.625 228.00781 C 419.18391 227.96014 420.36341 231.03502 420.22461 228.64453 C 419.91397 228.1953 419.72679 228.01881 419.625 228.00781 z M 334.72266 228.10938 C 333.70013 228.2626 329.99381 231.45049 334.44922 229.2793 C 335.10661 228.34547 335.0635 228.0583 334.72266 228.10938 z M 346.2793 228.16992 C 344.75012 228.07399 338.6344 229.20862 344.01172 229.2793 C 346.72252 228.51274 346.97438 228.21353 346.2793 228.16992 z M 424.94922 228.3125 C 424.4882 228.17558 423.42298 233.65538 425.09961 228.76172 C 425.06814 228.46629 425.01508 228.33206 424.94922 228.3125 z M 394.03516 229.73047 C 393.31754 229.80026 394.96164 234.26673 395.66211 231.55469 C 394.7755 230.17207 394.27436 229.7072 394.03516 229.73047 z M 399.87305 230.43945 C 399.12428 230.58461 399.6062 233.73642 401.04297 231.60352 C 400.51003 230.67662 400.12264 230.39107 399.87305 230.43945 z M 445.7168 230.58789 C 444.75944 230.70147 444.85953 232.28357 446.78711 236.80859 C 448.43166 238.15059 450.67934 238.79254 452.77539 238.33008 C 458.62017 237.53721 471.82609 232.9966 459.19922 235.42578 C 455.04842 237.19133 447.82298 230.33801 445.7168 230.58789 z M 303.99219 230.83984 C 302.16461 230.97873 305.34815 233.0761 304.42773 230.83984 C 304.25866 230.82983 304.11403 230.83058 303.99219 230.83984 z M 302.14062 233.62891 C 300.10684 233.43782 299.24964 239.74485 304.02734 235.6875 C 303.37112 234.2448 302.71008 233.68241 302.14062 233.62891 z M 290.2168 233.67383 C 288.19682 233.87567 287.43616 239.39339 292.48828 235.7793 C 291.70395 234.1303 290.89012 233.60655 290.2168 233.67383 z M 272.55664 234.07617 C 271.97779 234.17664 271.30652 237.27195 273.01367 235.27344 C 272.93303 234.34176 272.74959 234.04268 272.55664 234.07617 z M 283.39453 234.26758 C 282.07107 234.3373 285.52167 237.09344 284.28125 234.42578 C 283.86971 234.30245 283.5836 234.25762 283.39453 234.26758 z M 295.81055 234.26758 C 294.48708 234.33729 297.93766 237.09344 296.69727 234.42578 C 296.28573 234.30244 295.99961 234.25762 295.81055 234.26758 z M 373.90625 234.42578 C 371.91542 234.3812 372.87932 239.79437 375.76953 235.51367 C 374.98282 234.7357 374.36567 234.43607 373.90625 234.42578 z M 328.30078 234.45508 C 326.98596 234.51445 329.06697 237.8033 329.81055 235.04492 C 329.08708 234.60081 328.6042 234.44138 328.30078 234.45508 z M 439.55469 234.63867 C 437.03547 234.30979 436.8023 239.15189 441.62891 235.85547 C 440.83799 235.06516 440.13605 234.71457 439.55469 234.63867 z M 309.21094 234.66602 C 308.81787 234.65233 308.49433 236.13227 309.57812 235.31836 C 309.48144 234.84186 309.34196 234.67058 309.21094 234.66602 z M 384.86328 234.67969 C 380.27067 234.93512 376.36502 238.3539 389.09375 235.81641 C 388.00063 234.8608 386.39415 234.59454 384.86328 234.67969 z M 423.17188 234.81641 C 418.60644 234.77198 414.43756 235.24086 423.88086 236.35938 L 424.67773 236.35547 L 424.83984 236.35156 C 432.70016 235.4183 427.73731 234.86083 423.17188 234.81641 z M 334.72266 235.14453 C 333.70013 235.29776 329.99381 238.48568 334.44922 236.31445 C 335.10661 235.38063 335.0635 235.09345 334.72266 235.14453 z M 346.2793 235.20703 C 344.75008 235.1111 338.63428 236.24378 344.01172 236.31445 C 346.72254 235.54788 346.9744 235.25064 346.2793 235.20703 z M 394.03516 236.76562 C 393.31756 236.83539 394.96187 241.30189 395.66211 238.58984 C 394.77541 237.20717 394.27435 236.74237 394.03516 236.76562 z M 399.87305 237.47461 C 399.1243 237.61979 399.60629 240.7716 401.04297 238.63867 C 400.51002 237.71181 400.12263 237.42622 399.87305 237.47461 z M 303.99219 237.875 C 302.16462 238.01389 305.34814 240.11125 304.42773 237.875 C 304.25866 237.86498 304.11403 237.86574 303.99219 237.875 z M 428.21094 239.99219 C 427.59313 239.82317 426.2756 243.0958 428.44141 241.61133 C 428.54632 240.48614 428.41687 240.04853 428.21094 239.99219 z M 447.69727 240.57031 C 446.17515 241.97089 444.58677 243.32938 442.94922 244.55859 C 444.55374 245.18334 445.87128 247.31064 441.83008 248.6543 C 441.22268 247.52709 440.93909 246.67002 440.86719 246.02148 C 436.28523 249.03316 431.36725 250.7831 426.38086 249.38086 C 427.61506 251.08902 430.35152 251.44453 432.27148 250.82812 C 439.40342 252.60953 459.39037 251.08216 447.69727 240.57031 z M 467.53906 240.57227 C 464.99087 240.31523 464.25477 244.77917 470.5 242.81641 C 469.43946 241.26902 468.38846 240.65795 467.53906 240.57227 z M 290.2168 240.71094 C 288.19682 240.91277 287.43613 246.42851 292.48828 242.81445 C 291.70396 241.16545 290.89012 240.64366 290.2168 240.71094 z M 433.33398 240.74023 C 432.57045 240.58325 433.44988 243.7236 434.14844 241.48242 C 433.77499 240.98835 433.51018 240.77646 433.33398 240.74023 z M 381.52734 240.93945 C 377.56521 240.94277 369.512 245.36675 378.2793 245.26367 C 383.99969 243.76305 395.38212 241.90278 382.91406 241.23438 C 382.57593 241.02832 382.09336 240.93898 381.52734 240.93945 z M 272.55664 241.11133 C 271.97779 241.2118 271.30653 244.30713 273.01367 242.30859 C 272.93302 241.37691 272.74959 241.07784 272.55664 241.11133 z M 295.7832 241.16992 C 294.39385 241.2088 297.20972 244.41623 296.6582 241.375 C 296.26601 241.22379 295.98168 241.16437 295.7832 241.16992 z M 458.88477 241.26367 C 456.73298 241.44626 457.34427 246.60412 461.32812 242.5918 C 460.30558 241.5525 459.48726 241.21255 458.88477 241.26367 z M 283.39453 241.30273 C 282.07107 241.37242 285.52164 244.1286 284.28125 241.46094 C 283.86971 241.33759 283.5836 241.29278 283.39453 241.30273 z M 328.30078 241.49219 C 326.98596 241.55156 329.06697 244.83845 329.81055 242.08008 C 329.08708 241.63597 328.6042 241.47849 328.30078 241.49219 z M 308.03125 241.79492 C 307.46109 241.93549 308.68806 244.06828 308.75 242.08984 C 308.39069 241.83492 308.16282 241.76248 308.03125 241.79492 z M 419.71094 241.94141 C 419.47726 242.09509 419.63759 244.39342 420.08008 242.72852 C 419.91048 242.07679 419.78883 241.89018 419.71094 241.94141 z M 479.79297 241.99609 C 476.10701 242.06094 471.74505 245.40267 480.62109 249.14453 C 485.11752 243.87768 482.65983 241.94565 479.79297 241.99609 z M 334.72266 242.18164 C 333.70012 242.33488 329.99381 245.52086 334.44922 243.34961 C 335.10661 242.41578 335.0635 242.13056 334.72266 242.18164 z M 346.2793 242.24219 C 344.75011 242.14626 338.6344 243.27893 344.01172 243.34961 C 346.72252 242.58305 346.97438 242.28579 346.2793 242.24219 z M 400.77148 242.78906 C 399.98261 242.75411 397.8018 244.58153 399.54102 245.46875 C 401.21674 243.50141 401.24481 242.81004 400.77148 242.78906 z M 423.79297 244.80859 C 423.11947 244.65839 423.16809 248.22012 424.36914 245.62695 C 424.14206 245.07569 423.94839 244.84326 423.79297 244.80859 z M 437.87695 244.89648 C 437.41681 244.71817 437.55468 247.70123 438.29102 245.62695 C 438.12114 245.14824 437.98314 244.93763 437.87695 244.89648 z M 300.98438 245.78125 C 300.63961 245.71714 300.77385 247.80625 301.30078 246.24023 C 301.16916 245.9246 301.06394 245.79604 300.98438 245.78125 z M 510.98438 247.02734 C 510.36657 246.85833 509.04903 250.13096 511.21484 248.64648 C 511.31975 247.5213 511.19031 247.08368 510.98438 247.02734 z M 489.30859 247.13867 C 488.58897 246.92919 489.67847 251.0204 490.125 248.10938 C 489.73596 247.46401 489.47466 247.18701 489.30859 247.13867 z M 290.2168 247.74609 C 288.19682 247.94793 287.43613 253.46562 292.48828 249.85156 C 291.70396 248.20256 290.89012 247.67882 290.2168 247.74609 z M 474.39844 247.77344 C 473.81853 247.90335 473.39573 250.92829 474.96289 248.90234 C 474.80258 248.00777 474.59174 247.73013 474.39844 247.77344 z M 409.96094 248.07617 C 402.48386 248.11597 394.90996 250.89467 406.83203 250.54297 C 410.63503 250.75802 414.48737 250.97693 418.25586 250.27148 C 416.73787 248.60566 413.35961 248.05808 409.96094 248.07617 z M 272.55664 248.14648 C 271.97779 248.24696 271.30653 251.34424 273.01367 249.3457 C 272.93302 248.41402 272.74959 248.11299 272.55664 248.14648 z M 294.41992 248.18359 C 293.45653 247.98493 297.22709 251.40715 295.96289 249.01562 C 295.11625 248.46818 294.64224 248.22944 294.41992 248.18359 z M 283.39453 248.33789 C 282.07107 248.4076 285.52165 251.16376 284.28125 248.49609 C 283.86971 248.37275 283.5836 248.32793 283.39453 248.33789 z M 328.30078 248.52734 C 326.98596 248.58672 329.06697 251.87361 329.81055 249.11523 C 329.08708 248.67112 328.6042 248.51364 328.30078 248.52734 z M 377.16602 248.63867 C 372.93039 248.71812 371.74405 252.01672 380.09375 251.04688 L 381.28711 250.75781 L 382.17773 249.91016 C 380.32849 248.94432 378.57789 248.61219 377.16602 248.63867 z M 309.02148 248.98047 C 308.57241 248.7212 306.29329 252.66527 308.95703 249.96484 C 309.13159 249.32401 309.12512 249.0403 309.02148 248.98047 z M 334.72266 249.2168 C 333.70012 249.37004 329.99381 252.55602 334.44922 250.38477 C 335.10661 249.45094 335.0635 249.16572 334.72266 249.2168 z M 346.2793 249.27734 C 344.7501 249.18141 338.63435 250.31409 344.01172 250.38477 C 346.72253 249.61819 346.97439 249.32095 346.2793 249.27734 z M 467.54492 249.41602 C 465.06032 249.30657 459.61389 249.80574 465.68945 250.38477 C 469.46078 249.76613 469.03568 249.48168 467.54492 249.41602 z M 386.8125 249.56641 C 386.56252 249.68991 386.60217 255.78881 387.15039 252.02148 C 387.01055 250.14809 386.89583 249.52524 386.8125 249.56641 z M 472.66992 250.83789 C 471.95233 250.90764 473.59663 255.37413 474.29688 252.66211 C 473.41019 251.27944 472.90912 250.81464 472.66992 250.83789 z M 495.75586 251.4082 C 497.57442 251.27469 500.51894 254.06487 495.63281 255.68945 C 493.97934 252.62089 494.66473 251.48831 495.75586 251.4082 z M 478.25781 251.58789 C 477.60473 251.43741 477.81854 254.18082 478.84961 252.24805 C 478.60605 251.81216 478.40852 251.62262 478.25781 251.58789 z M 491.67969 251.93359 C 491.21952 251.75532 491.35745 254.73648 492.09375 252.66211 C 491.92385 252.1834 491.78588 251.97473 491.67969 251.93359 z M 254.63086 257.10547 C 254.31653 257.13477 253.58724 258.97733 254.72266 257.85742 C 254.79464 257.28735 254.73564 257.0957 254.63086 257.10547 z M 271.09766 261.34961 C 269.54725 261.50215 268.38519 264.59605 272.95117 263.62305 C 272.58773 261.81915 271.80239 261.28027 271.09766 261.34961 z M 326.99609 262.03711 C 329.01043 261.91678 331.14462 262.6999 333.17383 264.8418 C 338.86055 263.48366 359.76686 261.55754 354.49609 269.31445 C 347.51696 268.4559 342.57371 271.36287 344.84961 275.56445 C 343.08 280.14112 367.51614 279.54083 351.77148 283.60938 C 342.71258 283.81838 333.68339 284.67344 324.62695 284.94141 C 316.25217 286.60826 319.42537 280.56195 322.56641 277.68555 C 312.9693 277.06397 319.04083 262.51232 326.99609 262.03711 z M 258.83008 262.62305 C 258.14714 262.62697 258.8712 263.61128 262.19141 266.2793 C 253.80381 277.54709 274.05601 269.16867 278.95117 272.61133 C 284.21675 263.03196 272.51492 265.87672 271.08789 269.36133 C 268.64144 267.35345 260.33255 262.61441 258.83008 262.62305 z M 283.68945 262.7168 C 282.00367 262.5428 284.72561 265.78466 284.70312 263.0293 C 284.26157 262.83764 283.93028 262.74165 283.68945 262.7168 z M 486.99609 263.06055 C 489.66653 264.10548 491.07204 265.10404 491.58203 266.01562 C 491.6953 265.93584 491.86721 266.09415 492.09375 266.73242 C 491.90885 267.25335 491.76374 267.44567 491.6543 267.45898 C 490.25548 270.22485 480.24237 271.66821 475.56445 270.06836 C 455.62692 271.12485 435.85477 267.59149 416.21094 271.17773 C 400.61502 265.51037 375.86075 276.40615 365.48633 265.61719 C 378.68827 263.02145 393.21006 265.68636 406.97461 264.54102 C 433.67297 265.08092 460.40186 264.49786 486.99609 263.06055 z M 491.6543 267.45898 C 491.88111 267.01051 491.86777 266.52637 491.58203 266.01562 C 491.33662 266.19507 491.36218 267.49452 491.6543 267.45898 z M 472.66992 264.9082 C 471.95228 264.97798 473.59638 269.44447 474.29688 266.73242 C 473.41024 265.34978 472.90914 264.88494 472.66992 264.9082 z M 495.75586 265.47852 C 497.5744 265.345 500.51889 268.13518 495.63281 269.75977 C 493.97934 266.69122 494.66473 265.55863 495.75586 265.47852 z M 478.25781 265.6582 C 477.60473 265.50772 477.8185 268.25113 478.84961 266.31836 C 478.60605 265.88247 478.40852 265.69293 478.25781 265.6582 z M 290.27734 269.07227 C 288.40231 269.06772 288.10332 274.55406 292.16211 270.69336 C 291.45107 269.50542 290.80235 269.07354 290.27734 269.07227 z M 283.13281 269.31445 C 281.5071 269.37429 282.76518 274.2821 284.74609 270.2168 C 284.0373 269.5443 283.50798 269.30065 283.13281 269.31445 z M 337.62695 269.61914 C 337.28494 269.5782 336.5991 275.04129 337.74023 272.97656 C 337.84155 270.4944 337.76078 269.63516 337.62695 269.61914 z M 323.3457 269.66211 C 322.24445 269.5707 322.32151 272.6005 324.79492 271.07812 C 324.21126 270.06986 323.71279 269.69258 323.3457 269.66211 z M 331.98633 269.76953 C 329.39503 269.44833 328.93115 273.9674 334.07617 270.91797 C 333.29418 270.17586 332.58432 269.84366 331.98633 269.76953 z M 270.92578 275.52539 C 269.39376 275.6526 268.4593 278.59874 272.93359 277.72266 C 272.44257 275.99116 271.62216 275.46757 270.92578 275.52539 z M 283.76367 276.25781 C 281.64245 276.35927 285.18475 280.97723 285.04688 276.53125 C 284.48544 276.32185 284.0667 276.24332 283.76367 276.25781 z M 338.18164 276.88477 C 337.78858 276.87107 337.46505 278.35099 338.54883 277.53711 C 338.45215 277.06061 338.31266 276.88933 338.18164 276.88477 z M 290.5625 276.90625 C 288.15014 276.59765 287.67741 280.79108 292.5 277.98047 C 291.77775 277.28833 291.1192 276.97747 290.5625 276.90625 z M 335.1543 276.94531 C 334.64463 276.9143 331.46883 280.51242 334.44922 278.52734 C 335.19892 277.36939 335.32418 276.95565 335.1543 276.94531 z M 260.54883 276.95508 C 259.61775 276.83625 259.6374 278.04261 261.28711 281.70117 C 256.73413 291.00796 269.41631 284.23413 273.28711 284.99219 C 269.25005 283.89409 262.59719 277.21651 260.54883 276.95508 z M 308.26562 277.10938 C 306.94093 277.26046 309.74459 280.29126 309.10742 277.24609 C 308.72757 277.12398 308.45487 277.08779 308.26562 277.10938 z M 486.99609 277.13281 C 489.66675 278.17785 491.0741 279.17429 491.58398 280.08594 C 491.69726 280.00615 491.86721 280.16447 492.09375 280.80273 C 491.90876 281.32393 491.76376 281.51617 491.6543 281.5293 C 490.25857 284.29625 480.24328 285.74021 475.56445 284.14062 C 455.62692 285.19957 435.85477 281.66243 416.21094 285.25 C 400.61502 279.58264 375.86075 290.47646 365.48633 279.6875 C 378.68827 277.09168 393.21002 279.75679 406.97461 278.61133 C 433.67289 279.1498 460.40194 278.57085 486.99609 277.13281 z M 491.6543 281.5293 C 491.88004 281.08178 491.8684 280.59738 491.58398 280.08789 C 491.33779 280.26511 491.36203 281.56434 491.6543 281.5293 z M 278.42188 278.05664 C 275.32507 277.80983 272.68403 288.51901 281.60156 284.89453 C 280.91562 279.92774 279.63367 278.15322 278.42188 278.05664 z M 472.66992 278.97852 C 471.95233 279.04828 473.59663 283.51478 474.29688 280.80273 C 473.41018 279.42006 472.90912 278.95526 472.66992 278.97852 z M 495.75586 279.55078 C 497.5744 279.41727 500.51889 282.20745 495.63281 283.83203 C 493.97934 280.76348 494.66473 279.63089 495.75586 279.55078 z M 478.25781 279.73047 C 477.60473 279.57998 477.8185 282.3234 478.84961 280.39062 C 478.60605 279.95473 478.40852 279.7652 478.25781 279.73047 z M 254.63086 285.24805 C 254.31653 285.27731 253.58718 287.11983 254.72266 286 C 254.79467 285.42991 254.73564 285.23829 254.63086 285.24805 z M 271.09766 289.49219 C 269.54725 289.64473 268.3852 292.73863 272.95117 291.76562 C 272.58773 289.96173 271.80239 289.42285 271.09766 289.49219 z M 326.99609 290.17773 C 329.01043 290.05741 331.14462 290.84053 333.17383 292.98242 C 338.86055 291.62436 359.76683 289.70004 354.49609 297.45703 C 347.51695 296.59844 342.57373 299.50345 344.84961 303.70508 C 343.07992 308.28182 367.51614 307.68141 351.77148 311.75 C 342.71258 311.95901 333.68339 312.81594 324.62695 313.08398 C 316.25167 314.75093 319.42519 308.70237 322.56641 305.82617 C 312.96948 305.20446 319.04087 290.65293 326.99609 290.17773 z M 258.83008 290.76562 C 258.14714 290.76955 258.8712 291.75384 262.19141 294.42188 C 253.80381 305.68963 274.05603 297.31129 278.95117 300.75391 C 284.21676 291.17454 272.51494 294.01926 271.08789 297.50391 C 268.64143 295.49603 260.33254 290.75698 258.83008 290.76562 z M 283.68945 290.86133 C 282.00367 290.68737 284.72561 293.92724 284.70312 291.17188 C 284.26156 290.98023 283.93028 290.88618 283.68945 290.86133 z M 486.99609 291.20312 C 489.66674 292.24817 491.0741 293.2446 491.58398 294.15625 C 491.69726 294.07647 491.86721 294.23673 492.09375 294.875 C 491.90876 295.3962 491.76376 295.58648 491.6543 295.59961 C 490.25856 298.36652 480.24328 299.80909 475.56445 298.20898 C 455.62692 299.26548 435.85477 295.73411 416.21094 299.32031 C 400.61498 293.65302 375.86077 304.5467 365.48633 293.75781 C 378.68827 291.16203 393.21002 293.82909 406.97461 292.68359 C 433.67289 293.22214 460.4019 292.64116 486.99609 291.20312 z M 491.6543 295.59961 C 491.88004 295.1521 491.8684 294.66769 491.58398 294.1582 C 491.33779 294.33542 491.36203 295.63465 491.6543 295.59961 z M 472.66992 293.04883 C 471.95229 293.1186 473.59638 297.58705 474.29688 294.875 C 473.41025 293.49234 472.90913 293.02557 472.66992 293.04883 z M 495.75586 293.62109 C 497.5744 293.48758 500.51889 296.27776 495.63281 297.90234 C 493.97934 294.8338 494.66473 293.7012 495.75586 293.62109 z M 478.25781 293.80078 C 477.60473 293.65031 477.81857 296.39374 478.84961 294.46094 C 478.60604 294.02505 478.40852 293.8355 478.25781 293.80078 z M 290.27734 297.21484 C 288.40231 297.2103 288.10332 302.69664 292.16211 298.83594 C 291.45107 297.648 290.80235 297.21612 290.27734 297.21484 z M 283.13281 297.45703 C 281.5071 297.51684 282.76515 302.42465 284.74609 298.35938 C 284.03731 297.68686 283.50798 297.44323 283.13281 297.45703 z M 337.62695 297.75977 C 337.28494 297.71883 336.59912 303.18194 337.74023 301.11719 C 337.84154 298.63503 337.76078 297.77578 337.62695 297.75977 z M 323.3457 297.80273 C 322.24445 297.7113 322.32148 300.74107 324.79492 299.21875 C 324.21127 298.21048 323.71279 297.83321 323.3457 297.80273 z M 331.98633 297.91211 C 329.39503 297.59091 328.93117 302.11001 334.07617 299.06055 C 333.29417 298.31844 332.58432 297.98623 331.98633 297.91211 z M 270.92578 303.66797 C 269.39376 303.79518 268.4593 306.74132 272.93359 305.86523 C 272.44257 304.13374 271.62216 303.61015 270.92578 303.66797 z M 283.76367 304.40039 C 281.64246 304.50183 285.18475 309.11971 285.04688 304.67383 C 284.48545 304.46442 284.0667 304.3859 283.76367 304.40039 z M 338.18164 305.02734 C 337.78858 305.01365 337.46506 306.49354 338.54883 305.67969 C 338.45215 305.20319 338.31266 305.03191 338.18164 305.02734 z M 290.5625 305.04883 C 288.15013 304.74023 287.6774 308.93366 292.5 306.12305 C 291.77775 305.43091 291.1192 305.12004 290.5625 305.04883 z M 335.1543 305.08789 C 334.64463 305.05689 331.46884 308.65502 334.44922 306.66992 C 335.19891 305.51197 335.32419 305.09823 335.1543 305.08789 z M 260.54883 305.09766 C 259.61775 304.97883 259.6374 306.18714 261.28711 309.8457 C 256.73414 319.15249 269.4163 312.37663 273.28711 313.13477 C 269.25006 312.03665 262.5972 305.35908 260.54883 305.09766 z M 308.26562 305.25195 C 306.94093 305.40302 309.74458 308.43384 309.10742 305.38867 C 308.72757 305.26656 308.45487 305.23037 308.26562 305.25195 z M 486.99609 305.27539 C 489.66674 306.32044 491.0741 307.31687 491.58398 308.22852 C 491.69726 308.14875 491.86723 308.30704 492.09375 308.94531 C 491.90874 309.46648 491.76376 309.65876 491.6543 309.67188 C 490.25549 312.43774 480.24237 313.88102 475.56445 312.28125 C 455.62688 313.33755 435.85484 309.80529 416.21094 313.39062 C 400.61502 307.7233 375.86077 318.61897 365.48633 307.83008 C 378.68827 305.2343 393.21002 307.89941 406.97461 306.75391 C 433.67289 307.29245 460.40194 306.71343 486.99609 305.27539 z M 491.6543 309.67188 C 491.88085 309.22391 491.86874 308.74057 491.58398 308.23047 C 491.3378 308.40767 491.36204 309.70689 491.6543 309.67188 z M 278.42188 306.19922 C 275.32506 305.95237 272.684 316.66146 281.60156 313.03711 C 280.91563 308.07034 279.63367 306.29581 278.42188 306.19922 z M 472.66992 307.12109 C 471.95229 307.19087 473.59638 311.65736 474.29688 308.94531 C 473.41025 307.56266 472.90913 307.09784 472.66992 307.12109 z M 495.75586 307.69336 C 497.57442 307.55985 500.51894 310.35003 495.63281 311.97461 C 493.97934 308.90605 494.66473 307.77347 495.75586 307.69336 z M 478.25781 307.87305 C 477.60473 307.72258 477.81857 310.46405 478.84961 308.53125 C 478.60604 308.09537 478.40852 307.90777 478.25781 307.87305 z M 254.63086 313.39062 C 254.31653 313.41989 253.58718 315.2624 254.72266 314.14258 C 254.79467 313.57248 254.73564 313.38087 254.63086 313.39062 z M 271.09766 317.63672 C 269.54725 317.78927 268.38519 320.88124 272.95117 319.9082 C 272.58773 318.10431 271.80239 317.56738 271.09766 317.63672 z M 326.99609 318.32031 C 329.01043 318.19999 331.14462 318.98311 333.17383 321.125 C 338.86056 319.76694 359.76681 317.84262 354.49609 325.59961 C 347.51697 324.74105 342.57374 327.64603 344.84961 331.84766 C 343.07991 336.4244 367.51614 335.82399 351.77148 339.89258 C 342.71258 340.10159 333.68339 340.95859 324.62695 341.22656 C 316.25167 342.89351 319.42519 336.84495 322.56641 333.96875 C 312.96948 333.34703 319.04086 318.79552 326.99609 318.32031 z M 258.83008 318.9082 C 258.14714 318.91213 258.87119 319.89644 262.19141 322.56445 C 253.80381 333.83225 274.05601 325.45383 278.95117 328.89648 C 284.21676 319.31712 272.51493 322.1618 271.08789 325.64648 C 268.64143 323.6386 260.33254 318.89956 258.83008 318.9082 z M 283.68945 319.00391 C 282.00368 318.82992 284.72561 322.06979 284.70312 319.31445 C 284.26157 319.1228 283.93028 319.02876 283.68945 319.00391 z M 486.99609 319.34375 C 489.66596 320.38848 491.07176 321.3874 491.58203 322.29883 C 491.6953 322.21904 491.86721 322.37736 492.09375 323.01562 C 491.90885 323.53655 491.76374 323.72887 491.6543 323.74219 C 490.25548 326.50809 480.24237 327.95084 475.56445 326.35156 C 455.62692 327.41047 435.85477 323.87349 416.21094 327.46094 C 400.61502 321.79361 375.86077 332.68928 365.48633 321.90039 C 378.68827 319.30457 393.21002 321.96968 406.97461 320.82422 C 433.67289 321.36273 460.4019 320.78178 486.99609 319.34375 z M 491.6543 323.74219 C 491.8812 323.29353 491.8681 322.80979 491.58203 322.29883 C 491.33662 322.47827 491.36218 323.77772 491.6543 323.74219 z M 472.66992 321.19141 C 471.95233 321.26118 473.59663 325.7277 474.29688 323.01562 C 473.41018 321.63295 472.90912 321.16815 472.66992 321.19141 z M 495.75586 321.76367 C 497.5744 321.63016 500.51889 324.42034 495.63281 326.04492 C 493.97934 322.97638 494.66473 321.84378 495.75586 321.76367 z M 478.25781 321.94336 C 477.60473 321.79289 477.81857 324.53437 478.84961 322.60156 C 478.60604 322.16568 478.40852 321.97808 478.25781 321.94336 z M 290.27734 325.35742 C 288.40231 325.35288 288.10332 330.83921 292.16211 326.97852 C 291.45107 325.79058 290.80235 325.35869 290.27734 325.35742 z M 283.13281 325.59961 C 281.5071 325.65941 282.76516 330.56723 284.74609 326.50195 C 284.03731 325.82944 283.50798 325.58581 283.13281 325.59961 z M 337.62695 325.90234 C 337.28494 325.86141 336.59911 331.32452 337.74023 329.25977 C 337.84154 326.77759 337.76078 325.91836 337.62695 325.90234 z M 323.3457 325.94531 C 322.24445 325.85388 322.32148 328.88365 324.79492 327.36133 C 324.21127 326.35305 323.71279 325.97579 323.3457 325.94531 z M 331.98633 326.05469 C 329.39503 325.73347 328.93115 330.2506 334.07617 327.20117 C 333.29418 326.45905 332.58432 326.12881 331.98633 326.05469 z M 296.2207 327.69727 C 294.44917 327.59731 293.39726 329.00612 295.37109 333.53125 C 296.08345 334.3248 297.46051 334.35768 298.19141 333.56836 C 305.60822 333.5758 299.60271 327.8881 296.2207 327.69727 z M 270.92578 331.8125 C 269.39376 331.93971 268.4593 334.8878 272.93359 334.01172 C 272.44256 332.28022 271.62216 331.75468 270.92578 331.8125 z M 283.76367 332.54688 C 281.64245 332.64832 285.18475 337.26434 285.04688 332.81836 C 284.48544 332.60895 284.0667 332.53238 283.76367 332.54688 z M 258.60547 333.08984 C 257.65156 333.12233 258.15172 334.0989 261.92969 336.58203 C 260.73944 339.26342 258.35505 345.52165 264.03516 341.87891 C 272.98567 339.08115 261.04325 333.00683 258.60547 333.08984 z M 309.21094 333.16797 C 308.81787 333.1543 308.49437 334.63425 309.57812 333.82031 C 309.48143 333.34382 309.34196 333.17253 309.21094 333.16797 z M 338.18164 333.16992 C 337.78858 333.15623 337.46505 334.6342 338.54883 333.82031 C 338.45215 333.34381 338.31266 333.17449 338.18164 333.16992 z M 335.1543 333.22852 C 334.64463 333.1975 331.46883 336.79562 334.44922 334.81055 C 335.19892 333.65259 335.32418 333.23885 335.1543 333.22852 z M 381.31055 333.30469 C 382.42746 333.34548 383.36694 333.48661 384.01562 333.74219 C 393.03471 331.07259 402.95191 342.4213 387.99023 341.65625 C 382.1989 341.31382 376.27598 339.48335 370.53906 341.25391 C 356.97223 337.58658 373.49216 333.01917 381.31055 333.30469 z M 418.45703 333.42188 C 426.57286 333.5209 437.37725 338.77632 424.50391 341.39844 L 422.35156 341.43945 L 420.20508 341.25391 C 415.94312 342.00145 409.20053 339.8676 406.89453 337.76562 C 406.74771 337.89137 406.65359 337.73329 406.60742 337.47461 C 405.1791 335.88521 406.48639 334.39314 413.5918 334.27344 C 414.85434 333.65143 416.58415 333.39902 418.45703 333.42188 z M 406.60742 337.47461 C 406.69428 337.57127 406.78802 337.66854 406.89453 337.76562 C 406.99187 337.68225 407.10842 337.48681 407.25 337.08789 C 406.69895 335.53543 406.4883 336.80718 406.60742 337.47461 z M 303.99219 336.37695 C 302.16462 336.51584 305.34814 338.61321 304.42773 336.37695 C 304.25866 336.36694 304.11403 336.36769 303.99219 336.37695 z M 301.00586 339.77734 C 299.57273 339.81816 300.1658 339.80002 301.00586 339.77734 z M 296.69336 339.80469 C 296.2693 339.89619 296.09155 341.61067 297.16211 340.42188 C 297.00299 339.9241 296.83471 339.77419 296.69336 339.80469 z M 307.42578 340.10156 C 304.88929 340.25563 304.62089 343.24089 310.57227 341.18359 C 309.36927 340.31455 308.27128 340.05021 307.42578 340.10156 z M 465.08594 346.85352 C 476.10711 347.13014 477.75844 360.04511 467.34766 364.12695 C 477.42252 369.11052 449.9521 366.01136 463.64453 370.20312 C 464.33486 377.75749 471.30053 385.62388 474.96875 387.28906 C 466.79904 393.98657 455.1353 395.63011 445.77734 396.20898 C 443.97931 389.60388 455.29401 382.29654 446.91211 380.37695 C 451.29356 374.79426 448.10649 356.66305 442.76758 364.10156 C 444.4477 364.6279 446.02349 366.86352 441.83008 368.25781 C 441.5632 367.76254 441.36015 367.32 441.20703 366.92188 C 441.17769 366.98676 441.14857 367.03903 441.11914 367.10547 C 442.41528 372.26482 442.59275 379.39291 441.14453 385.4668 C 442.47732 383.92459 447.58897 387.4505 441.83008 389.36523 C 441.17447 388.14855 440.89216 387.24313 440.85156 386.58008 C 440.13519 389.15186 439.10943 391.4888 437.72656 393.3457 C 438.07759 394.24772 437.62508 394.23457 437.23438 393.9668 C 434.02248 397.78772 429.09113 399.16876 421.98633 395.49219 C 421.32309 394.92771 420.66675 394.45645 420.01562 394.04688 C 419.94452 394.14313 419.83648 394.03805 419.73242 393.86328 C 416.45359 391.90209 413.31198 391.78233 410.16992 392.46094 C 411.59879 393.23041 412.47528 395.15401 408.7207 396.40234 C 407.89396 394.86806 407.6527 393.81738 407.75391 393.14062 C 407.75391 393.14062 407.75391 393.13867 407.75391 393.13867 C 401.15584 395.27336 394.40378 399.72429 386.23828 396.97266 C 378.22848 396.79993 370.22594 396.1678 362.21094 396.38281 C 354.97726 378.16009 389.87199 387.30161 388.59375 382.82227 C 377.84361 384.80206 358.76434 384.29002 363.98438 368.68359 C 357.73145 357.46758 365.00282 343.24334 378.35352 349.46875 C 397.06917 347.90474 415.97157 349.92372 434.59961 347.0918 C 435.96772 348.65172 438.36534 350.60348 441.09961 352.53906 C 439.30599 347.17534 447.96765 351.26784 442.87305 353.76172 C 449.84446 358.42973 458.05539 362.48326 457.79102 359.94531 C 449.33489 354.51557 450.35463 345.56602 461.36719 347.19727 C 462.70486 346.93161 463.94582 346.8249 465.08594 346.85352 z M 419.73242 393.86328 C 419.82636 393.91947 419.92146 393.98764 420.01562 394.04688 C 420.07403 393.96782 420.10518 393.76095 420.08008 393.3457 C 419.22349 392.37323 419.44834 393.38615 419.73242 393.86328 z M 437.23438 393.9668 C 437.40315 393.76602 437.56725 393.55962 437.72656 393.3457 C 437.69304 393.25955 437.66246 393.17771 437.61328 393.07422 C 436.41406 392.99566 436.77381 393.65115 437.23438 393.9668 z M 308.03125 347.33203 C 307.46109 347.47261 308.68806 349.60734 308.75 347.62891 C 308.39069 347.37399 308.16283 347.29959 308.03125 347.33203 z M 283.80273 347.41797 C 283.24827 347.63383 282.81898 350.25119 284.33203 348.26172 C 284.18689 347.54022 283.98756 347.34601 283.80273 347.41797 z M 295.72656 347.49609 C 295.28135 347.35958 295.41458 349.64303 296.12695 348.05469 C 295.96257 347.68814 295.8293 347.5276 295.72656 347.49609 z M 303.00391 349.2832 C 302.37743 349.20541 302.01916 350.35629 302.9375 353.76367 C 302.4358 352.98687 298.53368 359.67059 302.51758 356.00195 C 306.37418 354.05582 304.19991 349.43172 303.00391 349.2832 z M 423.79297 350.3418 C 423.11946 350.19163 423.16812 353.75335 424.36914 351.16016 C 424.14205 350.60892 423.94839 350.37645 423.79297 350.3418 z M 437.87695 350.42969 C 437.41679 350.25141 437.55471 353.23453 438.29102 351.16016 C 438.12111 350.68145 437.98315 350.47083 437.87695 350.42969 z M 300.98438 351.32031 C 300.6396 351.25622 300.77389 353.34538 301.30078 351.7793 C 301.16915 351.46366 301.06394 351.3351 300.98438 351.32031 z M 272.55664 353.68555 C 271.97779 353.78602 271.30653 356.88135 273.01367 354.88281 C 272.93302 353.95113 272.74959 353.65206 272.55664 353.68555 z M 283.39453 353.87695 C 282.07107 353.94666 285.52165 356.70282 284.28125 354.03516 C 283.86971 353.91182 283.5836 353.86699 283.39453 353.87695 z M 328.30078 354.05859 C 326.98596 354.11798 329.06894 357.40681 329.8125 354.64844 C 329.08903 354.20433 328.6042 354.04489 328.30078 354.05859 z M 372.16016 354.35156 C 369.0971 354.1558 368.99516 357.98065 374.71875 355.25977 C 373.73173 354.65658 372.86702 354.39674 372.16016 354.35156 z M 296.60547 354.51953 C 296.1564 354.2602 293.87726 358.2043 296.54102 355.50391 C 296.71559 354.86304 296.7091 354.57938 296.60547 354.51953 z M 429.95703 354.62891 C 426.77215 354.55869 425.40152 355.68611 432.30078 357.26562 C 427.72173 364.54027 430.19513 364.20936 437.52148 362.42188 C 441.14741 356.78933 434.05188 354.71919 429.95703 354.62891 z M 334.72266 354.75 C 333.70013 354.90322 329.99382 358.08917 334.44922 355.91797 C 335.10662 354.98414 335.0635 354.69893 334.72266 354.75 z M 463.02148 354.75 C 461.99897 354.90322 458.29269 358.08917 462.74805 355.91797 C 463.40544 354.98414 463.36232 354.69893 463.02148 354.75 z M 346.2793 354.81055 C 344.75012 354.71461 338.63443 355.84729 344.01172 355.91797 C 346.72252 355.1514 346.97438 354.85415 346.2793 354.81055 z M 414.9082 354.95117 C 412.0975 354.85651 410.35939 356.22017 414.44141 359.10547 C 403.57175 364.24275 417.59128 363.8326 420.97656 362.42578 C 423.90823 357.60694 418.52196 355.07288 414.9082 354.95117 z M 400.03711 356.28711 C 399.35593 356.27178 398.63689 356.61861 397.90234 357.36523 C 399.19936 358.16111 399.8734 359.90911 396.59375 361.11328 C 397.42309 372.58181 374.83559 366.48798 386.02148 378.07422 L 387.42188 379.37695 C 383.47299 368.47551 405.89378 359.90413 400.71484 376.20508 C 408.02314 374.61167 405.02999 356.39944 400.03711 356.28711 z M 377.86523 357.46484 C 377.40507 357.28657 377.543 360.26968 378.2793 358.19531 C 378.10939 357.7166 377.97143 357.50598 377.86523 357.46484 z M 392.35156 357.46484 C 391.89141 357.28653 392.02929 360.26956 392.76562 358.19531 C 392.59574 357.7166 392.45775 357.50599 392.35156 357.46484 z M 370.99023 360.11133 C 367.1041 359.9395 365.75588 367.05497 374.68164 362.38867 C 373.36538 360.77943 372.07835 360.15944 370.99023 360.11133 z M 272.55664 360.7207 C 271.97779 360.82115 271.3065 363.91645 273.01367 361.91797 C 272.93304 360.98628 272.74959 360.68722 272.55664 360.7207 z M 283.39453 360.91211 C 282.07107 360.98183 285.52167 363.73797 284.28125 361.07031 C 283.86971 360.94698 283.5836 360.90215 283.39453 360.91211 z M 386.69141 361.08789 C 385.96477 360.98162 388.27621 363.58627 387.75195 361.68359 C 387.18849 361.28168 386.85909 361.11241 386.69141 361.08789 z M 328.30078 361.0957 C 326.98596 361.15509 329.06894 364.44197 329.8125 361.68359 C 329.08903 361.23949 328.6042 361.082 328.30078 361.0957 z M 309.21094 361.3125 C 308.81787 361.29881 308.49434 362.77677 309.57812 361.96289 C 309.48145 361.48639 309.34196 361.31706 309.21094 361.3125 z M 303.74414 361.45898 C 303.0347 361.34325 297.93755 364.671 302.4707 363.0332 C 303.7279 361.91757 303.98062 361.49756 303.74414 361.45898 z M 295.84961 361.54102 C 294.52491 361.69209 297.32858 364.72489 296.69141 361.67969 C 296.31155 361.55757 296.03885 361.51943 295.84961 361.54102 z M 486.19727 361.56055 C 484.90817 361.70357 488.2514 364.30746 487.06055 361.67188 C 486.66062 361.56939 486.38142 361.54012 486.19727 361.56055 z M 334.72266 361.78711 C 333.70013 361.94034 329.99381 365.12826 334.44922 362.95703 C 335.10661 362.0232 335.0635 361.73603 334.72266 361.78711 z M 346.2793 361.84766 C 344.75012 361.75172 338.63443 362.88635 344.01172 362.95703 C 346.72252 362.19046 346.97438 361.89126 346.2793 361.84766 z M 377.86523 364.49805 C 377.40506 364.31979 377.54305 367.30292 378.2793 365.22852 C 378.10938 364.74981 377.97143 364.53918 377.86523 364.49805 z M 392.35156 364.49805 C 391.89139 364.31979 392.02938 367.30292 392.76562 365.22852 C 392.59571 364.74981 392.45776 364.53918 392.35156 364.49805 z M 418.36133 366.75977 C 409.83856 366.33746 401.11332 381.94909 408.43164 384.04688 L 410.27539 384.08008 C 422.80434 388.75343 407.1956 363.45241 419.89844 372.33203 C 421.76231 380.36772 436.46465 377.10098 425.11719 371.5332 C 423.11949 368.2522 420.7477 366.87801 418.36133 366.75977 z M 376.92383 367.67773 C 373.99003 367.47352 373.2543 370.71936 380.38086 369.33203 C 379.12442 368.19825 377.90176 367.7458 376.92383 367.67773 z M 435.92773 368.12305 C 433.91194 368.04754 434.65908 372.97869 437.76953 369.14453 C 437.00515 368.42462 436.39292 368.14047 435.92773 368.12305 z M 329.04492 368.53516 C 327.89966 368.3886 327.83774 372.19701 329.99609 369.39844 C 329.63026 368.8136 329.30921 368.56898 329.04492 368.53516 z M 333.06836 368.59766 C 331.77927 368.74065 335.12047 371.3445 333.92969 368.70898 C 333.52976 368.60649 333.25251 368.57723 333.06836 368.59766 z M 486.52344 369.06055 C 483.75039 368.76438 484.89935 374.15774 487.7168 379.04297 C 488.30875 376.25991 488.91226 373.41113 489.51758 370.56055 C 488.23225 369.60593 487.24386 369.13749 486.52344 369.06055 z M 356.37695 370.88672 C 359.20121 370.85244 362.03035 381.04896 353.95898 375.30078 C 354.4958 372.0464 355.43553 370.89815 356.37695 370.88672 z M 373.05664 372.82227 C 372.27727 372.85308 373.03481 375.37898 375.11914 375.79102 L 375.0918 374.75977 C 374.08318 373.30962 373.4109 372.80826 373.05664 372.82227 z M 455.16602 372.96289 C 453.92884 373.03904 453.95819 374.39472 457.1875 377.74805 C 458.54076 379.48448 456.98117 386.6801 461.17773 383.39062 C 466.74543 378.81937 457.8878 372.79537 455.16602 372.96289 z M 254.37109 374.03906 C 256.07687 373.85613 258.2351 375.02442 260.83203 378.20703 C 261.84885 382.32528 256.96695 384.76585 261.97656 386.64844 C 256.09052 392.46211 269.68333 395.55121 256.91016 397.60742 L 254.20312 397.46875 C 247.97421 392.57916 248.27903 374.69238 254.37109 374.03906 z M 379.40234 374.38477 C 378.16334 374.33994 378.43532 378.13828 380.49805 375.16016 C 380.05462 374.60994 379.68827 374.39511 379.40234 374.38477 z M 436.72461 375.29102 C 433.95607 375.3496 439.40388 378.48048 436.72461 375.29102 z M 283.00195 375.30273 C 281.49829 375.16848 285.65838 377.81177 284.02539 375.55273 C 283.54595 375.3978 283.21676 375.32191 283.00195 375.30273 z M 338.18164 375.38477 C 337.78858 375.37107 337.46503 376.85099 338.54883 376.03711 C 338.45216 375.5606 338.31266 375.38933 338.18164 375.38477 z M 272.3125 375.51953 C 271.58365 375.3701 271.7114 378.2263 272.95117 376.19922 C 272.69494 375.74751 272.4807 375.55402 272.3125 375.51953 z M 308.63477 375.5625 C 308.0803 375.77838 307.65105 378.3977 309.16406 376.4082 C 309.01891 375.68671 308.81959 375.49054 308.63477 375.5625 z M 391.79492 375.625 C 391.34585 375.36572 389.06671 379.30983 391.73047 376.60938 C 391.90503 375.96853 391.89855 375.68483 391.79492 375.625 z M 395.88281 375.63672 C 395.43761 375.50021 395.57085 377.78363 396.2832 376.19531 C 396.11882 375.82877 395.98555 375.66822 395.88281 375.63672 z M 345.44727 375.83398 C 344.0327 375.82682 336.81945 378.59003 344.17383 377.02734 C 345.74482 376.14645 345.91879 375.83637 345.44727 375.83398 z M 334.72266 375.85938 C 333.70011 376.01262 329.9938 379.1986 334.44922 377.02734 C 335.1066 376.09354 335.0635 375.80829 334.72266 375.85938 z M 381.61914 377.47461 C 380.90155 377.54436 382.54585 382.01088 383.24609 379.29883 C 382.3594 377.91614 381.85834 377.45136 381.61914 377.47461 z M 408.84375 378.04492 C 410.66231 377.91143 413.60683 380.70164 408.7207 382.32617 C 407.06721 379.25758 407.75261 378.12502 408.84375 378.04492 z M 404.01172 378.18359 C 403.26296 378.32877 403.74493 381.48061 405.18164 379.34766 C 404.64869 378.42077 404.2613 378.1352 404.01172 378.18359 z M 296.11914 378.23828 C 295.83184 378.21984 294.84218 380.68418 296.06445 379.31836 C 296.23273 378.52678 296.21491 378.24443 296.11914 378.23828 z M 419.5625 378.86914 C 419.18046 378.90475 420.19278 381.14493 420.08008 379.27539 C 419.81234 378.97137 419.65066 378.86092 419.5625 378.86914 z M 437.61328 379 C 435.16899 378.93348 439.09777 381.50946 437.61328 379 z M 424.07227 380.69922 C 423.45446 380.5302 422.13692 383.80479 424.30273 382.32031 C 424.40764 381.19513 424.2782 380.75556 424.07227 380.69922 z M 433.33398 381.44922 C 432.57043 381.29228 433.44994 384.43271 434.14844 382.19141 C 433.77497 381.69734 433.51019 381.48544 433.33398 381.44922 z M 272.55664 381.83203 C 271.97779 381.9325 271.30653 385.02784 273.01367 383.0293 C 272.93302 382.09761 272.74959 381.79854 272.55664 381.83203 z M 283.39453 382.02148 C 282.07106 382.09118 285.52161 384.84732 284.28125 382.17969 C 283.86971 382.05635 283.5836 382.01153 283.39453 382.02148 z M 328.30078 382.20508 C 326.98596 382.26446 329.06893 385.55134 329.8125 382.79297 C 329.08903 382.34886 328.6042 382.19137 328.30078 382.20508 z M 308.13867 382.35547 C 306.47643 382.28702 310.0488 385.00849 308.54297 382.4082 C 308.38256 382.37643 308.24949 382.36003 308.13867 382.35547 z M 420.0918 382.68164 C 418.43902 382.64189 421.56056 385.15447 420.48828 382.72656 C 420.333 382.69901 420.20198 382.68429 420.0918 382.68164 z M 334.72266 382.89453 C 333.70012 383.04778 329.99381 386.23573 334.44922 384.06445 C 335.1066 383.13064 335.0635 382.84345 334.72266 382.89453 z M 346.2793 382.95703 C 344.75011 382.8611 338.63438 383.99378 344.01172 384.06445 C 346.72252 383.29789 346.97438 383.00064 346.2793 382.95703 z M 301.98242 382.99805 C 301.19079 382.94417 301.30628 383.95657 304.00391 386.64844 C 303.51767 388.4865 299.0943 393.33834 304.79492 390.70703 C 308.31363 387.09125 303.49372 383.10091 301.98242 382.99805 z M 400.30469 383.60156 C 399.55943 383.64978 397.77985 385.5432 399.54102 386.17773 C 400.82648 384.20839 400.75184 383.57263 400.30469 383.60156 z M 423.79297 385.51562 C 423.11946 385.36546 423.16816 388.92718 424.36914 386.33398 C 424.14205 385.78275 423.94839 385.55028 423.79297 385.51562 z M 437.87695 385.60547 C 437.41678 385.4272 437.55474 388.40839 438.29102 386.33398 C 438.12111 385.85528 437.98315 385.64661 437.87695 385.60547 z M 291.19141 386.48828 C 290.63556 386.42071 291.54854 389.4436 291.52539 386.73242 C 291.37896 386.57091 291.27081 386.49793 291.19141 386.48828 z M 300.98438 386.5 C 300.63961 386.43586 300.77379 388.52693 301.30078 386.96094 C 301.16917 386.64529 301.06394 386.5148 300.98438 386.5 z M 289.5 388.60156 C 287.50308 388.68781 286.50739 393.82343 291.64062 390.69141 C 290.94234 389.10471 290.16564 388.57281 289.5 388.60156 z M 272.55664 388.86719 C 271.97779 388.96767 271.30655 392.06299 273.01367 390.06445 C 272.93301 389.13278 272.74959 388.83369 272.55664 388.86719 z M 429.03125 388.95117 C 424.85849 388.96558 422.32727 392.71734 430.79297 391.07812 L 433.40625 390.51953 C 431.99709 389.35528 430.42217 388.94637 429.03125 388.95117 z M 283.39453 389.05859 C 282.07106 389.12829 285.52161 391.88443 284.28125 389.2168 C 283.86971 389.09346 283.5836 389.04864 283.39453 389.05859 z M 399.10742 389.22852 C 398.38088 389.12237 400.6925 391.72482 400.16797 389.82227 C 399.60452 389.42045 399.27508 389.25301 399.10742 389.22852 z M 328.30078 389.24023 C 326.98596 389.29962 329.06893 392.58845 329.8125 389.83008 C 329.08903 389.38597 328.6042 389.22653 328.30078 389.24023 z M 383.70703 389.45117 C 383.31396 389.43749 382.99042 390.91743 384.07422 390.10352 C 383.97754 389.62701 383.83805 389.45573 383.70703 389.45117 z M 394.93359 389.5293 C 394.07612 389.6691 398.37172 391.88543 396.49023 389.8418 C 395.60434 389.57496 395.13147 389.49703 394.93359 389.5293 z M 308.63477 389.63477 C 308.0803 389.85065 307.65107 392.46804 309.16406 390.47852 C 309.0189 389.75702 308.81959 389.5628 308.63477 389.63477 z M 436.625 389.67578 C 433.71083 389.61947 439.19844 392.16509 436.625 389.67578 z M 334.72266 389.93164 C 333.70013 390.08487 329.99381 393.27083 334.44922 391.09961 C 335.10661 390.16578 335.0635 389.88056 334.72266 389.93164 z M 346.2793 389.99219 C 344.75012 389.89626 338.63441 391.02893 344.01172 391.09961 C 346.72252 390.33305 346.97438 390.03579 346.2793 389.99219 z M 387.37305 390.51172 C 386.75981 390.48652 385.72566 392.57295 386.95117 393.98047 L 387.44141 393.43945 C 387.95711 391.30287 387.74099 390.52684 387.37305 390.51172 z M 381.61914 391.54688 C 380.90155 391.61664 382.54585 396.08509 383.24609 393.37305 C 382.3594 391.99037 381.85834 391.52362 381.61914 391.54688 z M 404.76758 392.64258 C 404.30741 392.46431 404.44537 395.44742 405.18164 393.37305 C 405.01173 392.89435 404.87377 392.68372 404.76758 392.64258 z M 291.19141 393.52539 C 290.63555 393.45787 291.54854 396.48068 291.52539 393.76953 C 291.37896 393.60804 291.27081 393.53504 291.19141 393.52539 z M 283.51367 395.52734 C 282.75014 395.37037 283.6296 398.50879 284.32812 396.26758 C 283.95467 395.77351 283.68987 395.56357 283.51367 395.52734 z M 271.09766 402.07031 C 269.54725 402.22286 268.3852 405.31676 272.95117 404.34375 C 272.58772 402.53985 271.80238 402.00097 271.09766 402.07031 z M 283.80273 403.70703 C 283.24827 403.92291 282.81902 406.54028 284.33203 404.55078 C 284.18688 403.82929 283.98756 403.63507 283.80273 403.70703 z M 394.03516 405.62305 C 393.31756 405.69282 394.96187 410.15934 395.66211 407.44727 C 394.77541 406.06459 394.27435 405.59979 394.03516 405.62305 z M 404.70508 406.19141 C 406.52364 406.0579 409.46818 408.8481 404.58203 410.47266 C 402.92854 407.40407 403.61394 406.27151 404.70508 406.19141 z M 291.57617 406.73828 C 289.74861 406.87717 292.93216 408.97457 292.01172 406.73828 C 291.84264 406.72827 291.69801 406.72902 291.57617 406.73828 z M 278.1582 409.30273 C 277.53449 409.26202 276.78999 410.47238 275.94336 413.55469 C 275.10987 433.55345 275.86154 453.67784 276.00781 473.62305 C 276.55931 475.29146 276.90276 476.75985 277.08984 478.07812 C 278.35949 477.94586 279.54498 477.8244 280.83789 477.68945 C 276.96831 461.8169 281.84199 445.38478 279.42969 429.35156 C 281.07856 425.55334 280.38576 409.44814 278.1582 409.30273 z M 289.72461 409.52344 C 287.69083 409.33237 286.83362 415.6414 291.61133 411.58398 C 290.9551 410.14128 290.29407 409.57694 289.72461 409.52344 z M 302.14062 409.52344 C 300.10684 409.33236 299.24965 415.64137 304.02734 411.58398 C 303.37112 410.14128 302.71008 409.57694 302.14062 409.52344 z M 434.61328 409.75781 C 430.18139 409.49038 426.29667 413.25471 435.4375 411.99023 L 437 411.87305 L 438.76562 411.70508 C 437.62903 410.38447 436.09058 409.84696 434.61328 409.75781 z M 272.55664 409.97461 C 271.97779 410.07509 271.30655 413.17237 273.01367 411.17383 C 272.93301 410.24216 272.74959 409.94112 272.55664 409.97461 z M 296.89844 410.16406 C 296.47163 410.18128 295.80619 412.26653 297.16211 411.03516 C 297.15663 410.38167 297.04071 410.15832 296.89844 410.16406 z M 309.31445 410.16406 C 308.88765 410.18128 308.22221 412.26653 309.57812 411.03516 C 309.57264 410.38167 309.45672 410.15832 309.31445 410.16406 z M 283.39453 410.16602 C 282.07106 410.23572 285.52165 412.99188 284.28125 410.32422 C 283.86971 410.20088 283.5836 410.15606 283.39453 410.16602 z M 373.90625 410.31836 C 371.91542 410.27379 372.87934 415.68893 375.76953 411.4082 C 374.98281 410.63023 374.36567 410.32864 373.90625 410.31836 z M 465.92578 410.33203 C 465.58376 410.29113 464.89793 415.75234 466.03906 413.6875 C 466.14037 411.20535 466.05961 410.34804 465.92578 410.33203 z M 328.30078 410.3457 C 326.98596 410.4051 329.06898 413.692 329.8125 410.93359 C 329.08903 410.48949 328.6042 410.332 328.30078 410.3457 z M 384.86328 410.56836 C 380.27061 410.82381 376.36473 414.24257 389.09375 411.70508 C 388.00067 410.74949 386.39417 410.48321 384.86328 410.56836 z M 462.18164 410.89648 C 459.49848 410.96338 464.8484 413.08472 462.18164 410.89648 z M 334.72266 411.03516 C 333.70013 411.18838 329.99382 414.37432 334.44922 412.20312 C 335.10662 411.2693 335.0635 410.98408 334.72266 411.03516 z M 346.2793 411.0957 C 344.75012 410.99977 338.63441 412.13245 344.01172 412.20312 C 346.72252 411.43655 346.97438 411.13931 346.2793 411.0957 z M 472.28711 411.12109 C 470.7327 411.37642 466.24813 414.81264 472.36328 412.26562 C 472.9972 411.30453 472.80524 411.03599 472.28711 411.12109 z M 394.03516 412.65625 C 393.31756 412.72601 394.96187 417.19252 395.66211 414.48047 C 394.77541 413.09779 394.27435 412.633 394.03516 412.65625 z M 399.87305 413.36523 C 399.12427 413.51042 399.60623 416.66225 401.04297 414.5293 C 400.51 413.60242 400.12264 413.31684 399.87305 413.36523 z M 291.57617 413.77148 C 289.74862 413.91037 292.93213 416.00774 292.01172 413.77148 C 291.84264 413.76147 291.69801 413.76223 291.57617 413.77148 z M 474.4375 416.37891 C 472.90336 416.40967 471.10972 416.70211 469.01367 417.29688 C 452.22487 420.02771 475.07474 416.20395 478.12305 423.83008 C 478.62656 421.49822 478.91443 420.21581 479.45703 417.69336 C 478.22252 416.82018 476.59352 416.33567 474.4375 416.37891 z M 442.74805 416.39648 C 441.32601 416.46165 439.73906 417.01712 438.00586 418.2168 C 443.9049 419.11789 443.96545 422.84624 442.71875 427.40625 C 444.41694 427.90326 446.06472 430.17213 441.83008 431.58008 C 441.7332 431.40028 441.65347 431.23504 441.57227 431.06836 C 439.93757 435.96622 438.15914 441.17487 440.86328 444.69141 C 439.41704 448.74416 439.75326 452.53559 441.24414 455.71094 C 442.54348 454.59732 446.36339 457.11282 443.40234 459.00391 C 443.72299 459.37895 444.05652 459.74172 444.41211 460.08594 C 447.10073 459.78305 450.03228 459.45696 452.33594 459.19336 C 447.34466 451.56376 451.57685 439.52705 450.6582 430.83594 C 451.99593 425.05371 448.91019 416.11408 442.74805 416.39648 z M 289.72461 416.56055 C 287.69083 416.36948 286.83362 422.67655 291.61133 418.61914 C 290.95511 417.17644 290.29407 416.61405 289.72461 416.56055 z M 302.14062 416.56055 C 300.10684 416.36948 299.24965 422.67655 304.02734 418.61914 C 303.37112 417.17644 302.71008 416.61405 302.14062 416.56055 z M 272.55664 417.00781 C 271.97779 417.10829 271.30655 420.20365 273.01367 418.20508 C 272.93301 417.2734 272.74959 416.97432 272.55664 417.00781 z M 296.89844 417.19531 C 296.47162 417.21252 295.80617 419.29775 297.16211 418.06641 C 297.15663 417.41292 297.04071 417.18958 296.89844 417.19531 z M 283.39453 417.19922 C 282.07106 417.26893 285.52164 420.02508 284.28125 417.35742 C 283.86971 417.23408 283.5836 417.18926 283.39453 417.19922 z M 423.45117 417.22461 C 421.192 417.10645 421.37698 423.08824 425.38867 418.48633 C 424.62398 417.60438 423.97252 417.25188 423.45117 417.22461 z M 373.90625 417.35156 C 371.91542 417.30697 372.8793 422.72015 375.76953 418.43945 C 374.98282 417.66147 374.36567 417.36185 373.90625 417.35156 z M 328.30078 417.38281 C 326.98596 417.44221 329.06898 420.72911 329.8125 417.9707 C 329.08903 417.5266 328.6042 417.36911 328.30078 417.38281 z M 431.97461 417.45508 C 431.18909 417.3506 425.31183 421.20308 430.46484 419.24023 C 431.93116 417.96402 432.23645 417.4899 431.97461 417.45508 z M 309.21094 417.59766 C 308.81787 417.58398 308.49437 419.06394 309.57812 418.25 C 309.48143 417.77351 309.34196 417.60221 309.21094 417.59766 z M 384.86328 417.60547 C 380.27061 417.86092 376.36473 421.27968 389.09375 418.74219 C 388.00067 417.7866 386.39417 417.52032 384.86328 417.60547 z M 334.72266 418.07227 C 333.70013 418.2255 329.99381 421.41146 334.44922 419.24023 C 335.10661 418.30641 335.0635 418.02119 334.72266 418.07227 z M 346.2793 418.13281 C 344.75012 418.03688 338.63441 419.16956 344.01172 419.24023 C 346.72252 418.47368 346.97438 418.17642 346.2793 418.13281 z M 394.03516 419.69141 C 393.31755 419.76113 394.96181 424.22957 395.66211 421.51758 C 394.77542 420.13487 394.27436 419.66817 394.03516 419.69141 z M 404.70508 420.26172 C 406.52364 420.12821 409.46816 422.91841 404.58203 424.54297 C 402.92854 421.47439 403.61394 420.34182 404.70508 420.26172 z M 399.87305 420.40039 C 399.12427 420.54556 399.6062 423.69738 401.04297 421.56445 C 400.51001 420.63757 400.12264 420.352 399.87305 420.40039 z M 291.57617 420.80664 C 289.74863 420.94553 292.93209 423.04289 292.01172 420.80664 C 291.84264 420.79662 291.69801 420.79738 291.57617 420.80664 z M 289.72461 423.5957 C 287.69082 423.40461 286.83361 429.71165 291.61133 425.6543 C 290.95511 424.2116 290.29407 423.64921 289.72461 423.5957 z M 381.52734 423.86328 C 377.56526 423.86662 369.5121 428.29052 378.2793 428.1875 C 383.99969 426.68691 395.38216 424.82661 382.91406 424.1582 C 382.57594 423.95216 382.09336 423.8628 381.52734 423.86328 z M 272.55664 424.04297 C 271.97779 424.14344 271.30653 427.24073 273.01367 425.24219 C 272.93302 424.31051 272.74959 424.00948 272.55664 424.04297 z M 458.88477 424.18945 C 456.73298 424.37205 457.34427 429.52795 461.32812 425.51562 C 460.30558 424.47633 459.48726 424.13833 458.88477 424.18945 z M 283.39453 424.23438 C 282.07106 424.30408 285.52164 427.06024 284.28125 424.39258 C 283.86971 424.26924 283.5836 424.22442 283.39453 424.23438 z M 296.69336 424.23438 C 296.26931 424.32588 296.09157 426.04038 297.16211 424.85156 C 297.00298 424.35379 296.83471 424.20387 296.69336 424.23438 z M 468.38086 424.40234 C 466.60421 424.69436 466.30054 428.59552 470.53516 425.69922 C 469.72924 424.60931 468.97308 424.305 468.38086 424.40234 z M 328.30078 424.41602 C 326.98596 424.47538 329.06892 427.7642 329.8125 425.00586 C 329.08903 424.56175 328.6042 424.40232 328.30078 424.41602 z M 308.03125 424.72656 C 307.46109 424.86715 308.68806 427.00184 308.75 425.02344 C 308.39069 424.76852 308.16282 424.69412 308.03125 424.72656 z M 419.93164 424.86719 C 419.52043 424.66445 419.27764 427.83639 420.23047 425.6543 C 420.13024 425.14086 420.02654 424.91397 419.93164 424.86719 z M 334.72266 425.10547 C 333.70013 425.2587 329.99382 428.44662 334.44922 426.27539 C 335.10661 425.34156 335.0635 425.05439 334.72266 425.10547 z M 346.2793 425.16797 C 344.75012 425.07204 338.6344 426.20471 344.01172 426.27539 C 346.72252 425.50883 346.97438 425.21157 346.2793 425.16797 z M 400.77148 425.71289 C 399.98261 425.67794 397.80177 427.50733 399.54102 428.39453 C 401.2167 426.42719 401.24481 425.73386 400.77148 425.71289 z M 423.79297 427.73242 C 423.11946 427.58226 423.16816 431.14397 424.36914 428.55078 C 424.14205 427.99954 423.94839 427.76707 423.79297 427.73242 z M 437.87695 427.82227 C 437.41678 427.644 437.55474 430.62518 438.29102 428.55078 C 438.12111 428.07207 437.98315 427.8634 437.87695 427.82227 z M 291.57617 427.8418 C 289.74862 427.98068 292.93212 430.07805 292.01172 427.8418 C 291.84264 427.83178 291.69801 427.83254 291.57617 427.8418 z M 300.98438 428.71289 C 300.63961 428.64875 300.77379 430.73786 301.30078 429.17188 C 301.16917 428.85622 301.06394 428.72769 300.98438 428.71289 z M 302.0957 429.0918 C 304.32863 439.79822 302.13499 450.74972 302.51758 461.5332 C 306.38078 453.14734 306.04251 429.24423 302.0957 429.0918 z M 428.35742 429.59375 C 427.74937 429.49054 426.14944 433.74862 428.45312 431.55078 C 428.65198 430.14627 428.5601 429.62815 428.35742 429.59375 z M 290.47266 430.54492 C 288.23094 430.60577 289.36527 436.1934 293.16406 432.12695 C 291.99104 430.94414 291.10034 430.52788 290.47266 430.54492 z M 272.55664 431.07812 C 271.97779 431.17858 271.30651 434.2739 273.01367 432.27539 C 272.93303 431.3437 272.74959 431.04464 272.55664 431.07812 z M 469.05859 431.08594 C 467.63325 431.03856 467.63005 436.37406 470.55664 432.70703 C 469.96747 431.53379 469.45769 431.0992 469.05859 431.08594 z M 283.39453 431.26953 C 282.07107 431.33922 285.52162 434.0954 284.28125 431.42773 C 283.86971 431.30439 283.5836 431.25958 283.39453 431.26953 z M 328.30078 431.45117 C 326.98596 431.51056 329.06894 434.79939 329.8125 432.04102 C 329.08903 431.59691 328.6042 431.43747 328.30078 431.45117 z M 389.91406 431.80078 C 389.00849 431.58366 389.87657 435.21908 390.8457 432.68945 C 390.42739 432.10587 390.12304 431.85089 389.91406 431.80078 z M 460.75586 431.85938 C 459.89228 432.19444 459.11098 437.18769 461.33008 432.54688 C 461.15774 431.95235 460.95515 431.78205 460.75586 431.85938 z M 395.10742 431.91211 C 394.53192 431.93553 393.13502 434.86395 395.24805 433.13672 C 395.39883 432.21878 395.29926 431.9043 395.10742 431.91211 z M 308.14258 431.92383 C 307.69737 431.78731 307.83058 434.07074 308.54297 432.48242 C 308.37859 432.11587 308.24532 431.95533 308.14258 431.92383 z M 420.0918 431.93359 C 418.43899 431.89387 421.56056 434.40643 420.48828 431.97852 C 420.33299 431.95097 420.20198 431.93624 420.0918 431.93359 z M 334.72266 432.14062 C 333.70013 432.29386 329.99381 435.47982 334.44922 433.30859 C 335.10661 432.37477 335.0635 432.08955 334.72266 432.14062 z M 346.2793 432.20117 C 344.75012 432.10524 338.63441 433.23792 344.01172 433.30859 C 346.72252 432.54203 346.97438 432.24478 346.2793 432.20117 z M 378.38281 432.24805 C 373.73874 432.11401 367.53006 433.45987 376.97461 436.32812 L 377.82617 436.07617 L 378.2793 435.22266 C 384.66037 433.35184 381.99487 432.3523 378.38281 432.24805 z M 412.01367 432.28906 C 408.30342 432.32688 400.87893 433.12033 410.13086 433.30859 L 410.27539 433.33203 C 415.12869 432.51616 414.23982 432.26637 412.01367 432.28906 z M 400.30469 432.85156 C 399.55943 432.89979 397.77985 434.79322 399.54102 435.42773 C 400.82647 433.45838 400.75184 432.82263 400.30469 432.85156 z M 441.95312 434.33398 C 443.77168 434.20047 446.71618 436.99065 441.83008 438.61523 C 440.17657 435.54667 440.86199 434.41409 441.95312 434.33398 z M 423.79297 434.76758 C 423.11945 434.61744 423.16816 438.17913 424.36914 435.58594 C 424.14204 435.03471 423.9484 434.80223 423.79297 434.76758 z M 437.87695 434.85547 C 437.41678 434.6772 437.55474 437.66031 438.29102 435.58594 C 438.12111 435.10724 437.98315 434.89661 437.87695 434.85547 z M 300.98438 435.74609 C 300.63961 435.68199 300.77385 437.77305 301.30078 436.20703 C 301.16916 435.89139 301.06394 435.76089 300.98438 435.74609 z M 428.35742 436.62891 C 427.74937 436.52569 426.14944 440.78375 428.45312 438.58594 C 428.65198 437.18143 428.5601 436.66331 428.35742 436.62891 z M 291.30078 437.42383 C 289.47377 437.42105 284.35855 443.02186 291.45703 439.82812 C 292.1526 438.04889 291.90979 437.42475 291.30078 437.42383 z M 272.55664 438.11328 C 271.97779 438.21376 271.30655 441.30911 273.01367 439.31055 C 272.93301 438.37886 272.74959 438.07979 272.55664 438.11328 z M 469.05859 438.12109 C 467.63325 438.07372 467.63002 443.40922 470.55664 439.74219 C 469.96748 438.56895 469.45769 438.13436 469.05859 438.12109 z M 283.39453 438.30273 C 282.07106 438.37244 285.52165 441.1286 284.28125 438.46094 C 283.86971 438.3376 283.5836 438.29278 283.39453 438.30273 z M 328.30078 438.48633 C 326.98596 438.54571 329.06894 441.83259 329.8125 439.07422 C 329.08903 438.63011 328.6042 438.47262 328.30078 438.48633 z M 389.91406 438.83594 C 389.00851 438.6188 389.87654 442.2542 390.8457 439.72461 C 390.4274 439.14102 390.12304 438.88605 389.91406 438.83594 z M 460.75586 438.89453 C 459.89228 439.22959 459.11098 444.22285 461.33008 439.58203 C 461.15774 438.98751 460.95515 438.81721 460.75586 438.89453 z M 395.10742 438.94727 C 394.53191 438.97068 393.13499 441.89911 395.24805 440.17188 C 395.39883 439.25393 395.29926 438.93946 395.10742 438.94727 z M 308.14258 438.95898 C 307.69737 438.82249 307.83063 441.10592 308.54297 439.51758 C 308.37858 439.15104 308.24532 438.99048 308.14258 438.95898 z M 420.0918 438.96875 C 418.43902 438.9291 421.56052 441.44148 420.48828 439.01367 C 420.333 438.98613 420.20198 438.97139 420.0918 438.96875 z M 334.72266 439.17578 C 333.70013 439.329 329.99382 442.51495 334.44922 440.34375 C 335.10661 439.40992 335.0635 439.12471 334.72266 439.17578 z M 346.2793 439.23633 C 344.7501 439.1404 338.63435 440.27307 344.01172 440.34375 C 346.72253 439.57718 346.97439 439.27993 346.2793 439.23633 z M 378.38281 439.2832 C 373.73874 439.14914 367.53015 440.49299 376.97461 443.36133 L 377.82617 443.11133 L 378.2793 442.25781 C 384.66042 440.38703 381.99487 439.38748 378.38281 439.2832 z M 412.01367 439.32422 C 408.30342 439.36203 400.87893 440.15548 410.13086 440.34375 L 410.27539 440.36719 C 415.12869 439.55133 414.23982 439.30153 412.01367 439.32422 z M 400.30469 439.88672 C 399.55943 439.93494 397.77985 441.82836 399.54102 442.46289 C 400.82647 440.49355 400.75184 439.85779 400.30469 439.88672 z M 441.95312 441.36914 C 443.77168 441.23563 446.71618 444.02583 441.83008 445.65039 C 440.17657 442.58183 440.86199 441.44924 441.95312 441.36914 z M 423.79297 441.80273 C 423.11945 441.65259 423.16816 445.21233 424.36914 442.61914 C 424.14204 442.06792 423.9484 441.83738 423.79297 441.80273 z M 437.87695 441.89062 C 437.41676 441.71237 437.55474 444.69354 438.29102 442.61914 C 438.12109 442.14044 437.98315 441.93176 437.87695 441.89062 z M 300.98438 442.78125 C 300.63961 442.71714 300.77385 444.80625 301.30078 443.24023 C 301.16916 442.9246 301.06394 442.79604 300.98438 442.78125 z M 428.35742 443.66211 C 427.74937 443.55889 426.14944 447.81891 428.45312 445.62109 C 428.65198 444.21658 428.5601 443.69652 428.35742 443.66211 z M 272.55664 445.14648 C 271.97779 445.24695 271.30652 448.34226 273.01367 446.34375 C 272.93303 445.41207 272.74959 445.113 272.55664 445.14648 z M 469.05859 445.1543 C 467.63325 445.10694 467.63011 450.4444 470.55664 446.77734 C 469.96746 445.60411 469.45769 445.16756 469.05859 445.1543 z M 283.39453 445.33789 C 282.07106 445.40762 285.52166 448.16376 284.28125 445.49609 C 283.86971 445.37276 283.5836 445.32793 283.39453 445.33789 z M 328.30078 445.52148 C 326.98596 445.58085 329.06892 448.86772 329.8125 446.10938 C 329.08903 445.66526 328.6042 445.50778 328.30078 445.52148 z M 389.91406 445.86914 C 389.00849 445.65202 389.87657 449.28744 390.8457 446.75781 C 390.42739 446.17423 390.12304 445.91924 389.91406 445.86914 z M 460.75586 445.92773 C 459.89228 446.26279 459.11098 451.25605 461.33008 446.61523 C 461.15774 446.02071 460.95515 445.85041 460.75586 445.92773 z M 395.10742 445.98047 C 394.53191 446.00389 393.13499 448.93427 395.24805 447.20703 C 395.39884 446.28909 395.29926 445.97266 395.10742 445.98047 z M 295.72656 445.99414 C 295.28135 445.85763 295.41459 448.14108 296.12695 446.55273 C 295.96257 446.18619 295.8293 446.02564 295.72656 445.99414 z M 308.14258 445.99414 C 307.69737 445.85763 307.83061 448.14105 308.54297 446.55273 C 308.37859 446.18619 308.24532 446.02564 308.14258 445.99414 z M 420.0918 446.00391 C 418.43904 445.96424 421.5607 448.47457 420.48828 446.04688 C 420.333 446.01933 420.20198 446.00655 420.0918 446.00391 z M 334.72266 446.20898 C 333.70013 446.36221 329.99382 449.55013 334.44922 447.37891 C 335.10661 446.44508 335.0635 446.15791 334.72266 446.20898 z M 346.2793 446.26953 C 344.75011 446.1736 338.63438 447.30823 344.01172 447.37891 C 346.72252 446.61234 346.97438 446.31314 346.2793 446.26953 z M 378.38281 446.31836 C 373.73873 446.18431 367.53006 447.52819 376.97461 450.39648 L 377.82617 450.14453 L 378.2793 449.29102 C 384.6604 447.4202 381.99488 446.42262 378.38281 446.31836 z M 412.01367 446.35742 C 408.30342 446.39523 400.87893 447.19064 410.13086 447.37891 L 410.27539 447.40039 C 415.12869 446.58454 414.23982 446.33473 412.01367 446.35742 z M 400.30469 446.92188 C 399.55943 446.97009 397.77985 448.86156 399.54102 449.49609 C 400.82648 447.52675 400.75184 446.89294 400.30469 446.92188 z M 441.95312 448.40625 C 443.77168 448.27274 446.71618 451.06294 441.83008 452.6875 C 440.17659 449.61894 440.86199 448.48635 441.95312 448.40625 z M 288.85547 448.69336 C 287.8169 448.61656 286.94538 450.39495 286.75195 455.1875 C 287.14164 457.16455 287.63292 459.95033 287.95898 462.91992 C 289.2043 461.21822 294.53515 464.81743 288.69922 466.75781 C 288.49483 466.37851 288.33772 466.03861 288.20117 465.7168 C 288.28657 467.05861 288.31375 468.38786 288.27344 469.67578 C 288.74867 469.40365 289.44271 469.49424 290.05859 469.79883 C 290.43795 468.63621 290.92825 467.44859 291.55859 466.24023 C 295.25326 461.19595 291.50958 448.88962 288.85547 448.69336 z M 423.79297 448.83594 C 423.11946 448.68577 423.16816 452.24749 424.36914 449.6543 C 424.14205 449.10306 423.94839 448.87059 423.79297 448.83594 z M 437.87695 448.92578 C 437.41677 448.7475 437.55468 451.72867 438.29102 449.6543 C 438.12111 449.17559 437.98315 448.96692 437.87695 448.92578 z M 300.98438 449.81445 C 300.63961 449.75033 300.77383 451.84138 301.30078 450.27539 C 301.16917 449.95975 301.06394 449.82925 300.98438 449.81445 z M 428.35742 450.69727 C 427.74937 450.59405 426.14944 454.85211 428.45312 452.6543 C 428.65198 451.24979 428.5601 450.73167 428.35742 450.69727 z M 272.55664 452.18164 C 271.97779 452.2821 271.30652 455.37742 273.01367 453.37891 C 272.93303 452.44722 272.74959 452.14815 272.55664 452.18164 z M 469.05859 452.18945 C 467.63325 452.14208 467.63005 457.47757 470.55664 453.81055 C 469.96747 452.63731 469.45769 452.20272 469.05859 452.18945 z M 294.41992 452.2168 C 293.45651 452.0181 297.22706 455.44033 295.96289 453.04883 C 295.11624 452.50137 294.64225 452.26265 294.41992 452.2168 z M 328.30078 452.55469 C 326.98596 452.61407 329.06894 455.90291 329.8125 453.14453 C 329.08903 452.70043 328.6042 452.54098 328.30078 452.55469 z M 283.00195 452.68945 C 281.49829 452.55526 285.65839 455.19849 284.02539 452.93945 C 283.54595 452.78453 283.21676 452.70862 283.00195 452.68945 z M 389.91406 452.9043 C 389.00849 452.68718 389.87657 456.32259 390.8457 453.79297 C 390.42739 453.20939 390.12304 452.9544 389.91406 452.9043 z M 460.75586 452.96289 C 459.89228 453.29795 459.11098 458.29121 461.33008 453.65039 C 461.15774 453.05587 460.95515 452.88557 460.75586 452.96289 z M 395.10742 453.01562 C 394.53192 453.03905 393.13502 455.9675 395.24805 454.24023 C 395.39883 453.32229 395.29926 453.00782 395.10742 453.01562 z M 308.14258 453.02734 C 307.69737 452.89085 307.83063 455.17428 308.54297 453.58594 C 308.37858 453.2194 308.24532 453.05884 308.14258 453.02734 z M 420.0918 453.03711 C 418.43904 452.99745 421.5607 455.50973 420.48828 453.08203 C 420.333 453.05449 420.20198 453.03975 420.0918 453.03711 z M 334.72266 453.24414 C 333.70013 453.39736 329.99382 456.58331 334.44922 454.41211 C 335.10662 453.47828 335.0635 453.19307 334.72266 453.24414 z M 346.2793 453.30469 C 344.75012 453.20876 338.63441 454.34143 344.01172 454.41211 C 346.72252 453.64554 346.97438 453.34829 346.2793 453.30469 z M 378.38281 453.35156 C 373.73874 453.21751 367.53012 454.56137 376.97461 457.42969 L 377.82617 457.17969 L 378.2793 456.32617 C 384.66042 454.45537 381.99487 453.45583 378.38281 453.35156 z M 412.01367 453.39258 C 408.30342 453.43039 400.87893 454.22384 410.13086 454.41211 L 410.27539 454.43555 C 415.12869 453.61968 414.23982 453.36989 412.01367 453.39258 z M 400.30469 453.95508 C 399.55943 454.00299 397.7799 455.89591 399.54102 456.53125 C 400.82654 454.56221 400.75184 453.92633 400.30469 453.95508 z M 288.82227 455.44141 C 290.64082 455.30791 293.58534 458.09812 288.69922 459.72266 C 287.04572 456.65408 287.73113 455.5215 288.82227 455.44141 z M 423.79297 455.87109 C 423.11945 455.72095 423.16816 459.28265 424.36914 456.68945 C 424.14204 456.13823 423.9484 455.90574 423.79297 455.87109 z M 437.87695 455.95898 C 437.41678 455.78072 437.55474 458.76382 438.29102 456.68945 C 438.12111 456.21075 437.98315 456.00012 437.87695 455.95898 z M 300.98438 456.84961 C 300.63961 456.7855 300.77385 458.87657 301.30078 457.31055 C 301.16916 456.99491 301.06394 456.8644 300.98438 456.84961 z M 399.46289 458.99609 C 396.56072 459.13487 394.13172 462.82612 395.04492 465.53125 C 395.66182 465.46431 396.15277 465.4103 396.76562 465.34375 C 397.36497 464.38529 399.40704 464.63509 401.29297 464.84766 C 402.51171 464.71504 403.57967 464.59754 404.7793 464.4668 C 405.0583 463.80671 404.30417 462.41011 401.64062 459.60352 C 400.91496 459.1431 400.17471 458.96206 399.46289 458.99609 z M 272.55664 459.2168 C 271.97779 459.31727 271.30653 462.4126 273.01367 460.41406 C 272.93302 459.48238 272.74959 459.18331 272.55664 459.2168 z M 430.50586 459.24219 C 429.3321 459.28775 427.95961 459.7368 426.42773 460.74609 C 427.20482 461.13951 427.86471 461.5175 428.42188 461.88281 C 430.64961 461.6367 432.21982 461.45907 434.3125 461.22656 C 433.57324 460.01663 432.26629 459.17385 430.50586 459.24219 z M 328.30078 459.58984 C 326.98596 459.64921 329.0689 462.93608 329.8125 460.17773 C 329.08904 459.73362 328.6042 459.57614 328.30078 459.58984 z M 372.38477 459.6543 C 369.54911 459.42887 369.28233 464.29271 374.71875 460.78906 C 373.82911 460.02965 373.03915 459.70632 372.38477 459.6543 z M 283.00195 459.72266 C 281.49829 459.58839 285.65835 462.23169 284.02539 459.97266 C 283.54595 459.81771 283.21676 459.74184 283.00195 459.72266 z M 296.60547 460.04883 C 296.1564 459.78949 293.87726 463.7336 296.54102 461.0332 C 296.71559 460.39233 296.7091 460.10867 296.60547 460.04883 z M 334.72266 460.2793 C 333.70014 460.43249 329.99383 463.61841 334.44922 461.44727 C 335.10663 460.51342 335.0635 460.22823 334.72266 460.2793 z M 346.2793 460.33984 C 344.75011 460.24391 338.6344 461.37659 344.01172 461.44727 C 346.72253 460.68071 346.97438 460.38345 346.2793 460.33984 z M 413.94531 460.58203 C 413.09923 460.58351 413.38631 461.90566 413.51172 463.51367 C 414.81674 463.37081 416.20587 463.21992 417.48047 463.08008 C 417.26468 462.79003 417.06226 462.48838 416.89062 462.16211 C 415.33657 461.03809 414.44392 460.58116 413.94531 460.58203 z M 377.86523 462.99414 C 377.40506 462.81585 377.54295 465.79898 378.2793 463.72461 C 378.1094 463.24589 377.97143 463.03528 377.86523 462.99414 z M 392.35156 462.99414 C 391.8914 462.81582 392.02923 465.79886 392.76562 463.72461 C 392.59574 463.24589 392.45775 463.03529 392.35156 462.99414 z M 373.74219 464.86914 C 373.33246 465.0251 373.79693 467.24324 374.19531 467.78125 C 374.2922 467.77081 374.39144 467.76043 374.48828 467.75 C 374.59303 467.5036 374.65796 466.91695 374.63281 465.78125 C 374.17708 465.04681 373.8971 464.81017 373.74219 464.86914 z M 272.55664 466.25195 C 271.97779 466.35243 271.30653 469.44776 273.01367 467.44922 C 272.93302 466.51754 272.74959 466.21846 272.55664 466.25195 z M 366.22266 466.44141 C 365.7986 466.53291 365.62085 468.24739 366.69141 467.05859 C 366.53229 466.56082 366.36401 466.41091 366.22266 466.44141 z M 303.07812 466.46289 C 301.37236 466.31158 301.03303 471.35412 304.77344 468.10742 C 304.14131 466.95464 303.55574 466.50526 303.07812 466.46289 z M 307.72266 466.60742 C 306.75466 466.65754 309.74222 469.99282 309.11719 467.21289 C 308.3794 466.759 307.94604 466.59586 307.72266 466.60742 z M 328.30078 466.625 C 326.98596 466.68435 329.06889 469.9712 329.8125 467.21289 C 329.08904 466.76877 328.6042 466.6113 328.30078 466.625 z M 283.00195 466.75781 C 281.49829 466.62358 285.65837 469.26685 284.02539 467.00781 C 283.54595 466.85288 283.21676 466.77699 283.00195 466.75781 z M 295.67773 467.08984 C 294.9201 467.08195 296.01097 469.27251 296.125 467.24609 C 295.93314 467.13651 295.78597 467.09097 295.67773 467.08984 z M 334.72266 467.31445 C 333.70013 467.46767 329.99381 470.65362 334.44922 468.48242 C 335.10661 467.5486 335.0635 467.26338 334.72266 467.31445 z M 346.2793 467.375 C 344.75012 467.27907 338.63441 468.41174 344.01172 468.48242 C 346.72252 467.71586 346.97438 467.4186 346.2793 467.375 z M 296.11914 469.69727 C 295.83184 469.67878 294.84214 472.14305 296.06445 470.77734 C 296.23276 469.98576 296.21491 469.70343 296.11914 469.69727 z M 288.06445 472.42773 C 287.80543 474.28583 287.31747 475.91263 286.50195 477.09961 C 287.45984 476.99936 288.24277 476.91786 289.21094 476.81641 C 289.1073 475.7847 289.10692 474.70989 289.22656 473.59766 C 289.05921 473.66436 288.88989 473.72957 288.69922 473.79297 C 288.42619 473.28627 288.21862 472.83284 288.06445 472.42773 z M 307.61328 473.13672 C 306.91249 472.92937 308.73002 475.90095 308.55664 473.88867 C 308.07135 473.40196 307.775 473.18457 307.61328 473.13672 z M 272.55664 473.29102 C 271.9778 473.3915 271.30657 476.48685 273.01367 474.48828 C 272.93301 473.55661 272.74959 473.25752 272.55664 473.29102 z M 295.64062 473.65625 C 294.91394 473.54992 297.22527 476.1546 296.70117 474.25195 C 296.1377 473.85 295.80832 473.68079 295.64062 473.65625 z M 302.39062 473.72266 C 301.61138 473.68522 300.22266 474.60536 299.27734 475.76367 C 300.39336 475.64625 301.61274 475.51505 302.73828 475.39648 C 303.16038 474.23533 302.92917 473.74853 302.39062 473.72266 z M 283.00195 473.79688 C 281.49828 473.66264 285.65835 476.30588 284.02539 474.04688 C 283.54595 473.89194 283.21676 473.81605 283.00195 473.79688 z "
       transform="matrix(0.26458334,0,0,0.26458334,0,-274.50003)" />
    <text
       xml:space="preserve"
       id="text840"
       style="font-style:normal;font-variant:normal;font-weight:bold;font-stretch:normal;font-size:22.5778px;line-height:125%;font-family:'Gill Sans MT';-inkscape-font-specification:'Gill Sans MT Bold';text-align:center;letter-spacing:0px;word-spacing:0px;white-space:pre;shape-inside:url(#rect842);fill:black;fill-opacity:1;stroke:none;stroke-width:0.264583px;stroke-linecap:butt;stroke-linejoin:miter;stroke-opacity:1;"
       x="34.616322"
       y="0"
       transform="translate(-2.6121053,-0.67696127)"><tspan
         x="63.116336"
         y="-117.52945"><tspan>LOG</tspan></tspan></text>
  </g>
</svg>
