<?xml version="1.0" encoding="UTF-8" standalone="no"?>
<svg
   xmlns:dc="http://purl.org/dc/elements/1.1/"
   xmlns:cc="http://creativecommons.org/ns#"
   xmlns:rdf="http://www.w3.org/1999/02/22-rdf-syntax-ns#"
   xmlns:svg="http://www.w3.org/2000/svg"
   xmlns="http://www.w3.org/2000/svg"
   xmlns:sodipodi="http://sodipodi.sourceforge.net/DTD/sodipodi-0.dtd"
   xmlns:inkscape="http://www.inkscape.org/namespaces/inkscape"
   width="640"
   height="640"
   viewBox="0 0 169.33333 169.33334"
   version="1.1"
   id="svg8"
   inkscape:version="1.0.2 (e86c870879, 2021-01-15)"
   sodipodi:docname="icon-control-arithmetic.svg"
   inkscape:export-filename="/home/marnanel/proj/yex/docs/symbols/icon-control-arithmetic.png"
   inkscape:export-xdpi="96"
   inkscape:export-ydpi="96">
  <defs
     id="defs2">
    <rect
       x="3.9804926"
       y="-137.29098"
       width="170.27429"
       height="39.139292"
       id="rect842" />
    <rect
       x="247.71819"
       y="-79.544594"
       width="325.17978"
       height="329.1283"
       id="rect895" />
    <rect
       x="11.589755"
       y="-250.68578"
       width="522.98303"
       height="542.8233"
       id="rect889" />
    <rect
       x="11.589755"
       y="-250.68578"
       width="522.98303"
       height="542.8233"
       id="rect903" />
    <rect
       x="11.589755"
       y="-250.68578"
       width="522.98303"
       height="542.8233"
       id="rect909" />
    <rect
       x="11.589755"
       y="-250.68578"
       width="522.98303"
       height="542.8233"
       id="rect915" />
    <rect
       x="11.589755"
       y="-250.68578"
       width="522.98303"
       height="542.8233"
       id="rect939" />
    <rect
       x="11.589755"
       y="-250.68578"
       width="522.98303"
       height="542.8233"
       id="rect949" />
    <rect
       x="11.589755"
       y="-250.68578"
       width="522.98303"
       height="542.8233"
       id="rect951" />
  </defs>
  <sodipodi:namedview
     id="base"
     pagecolor="#ffffff"
     bordercolor="#666666"
     borderopacity="1.0"
     inkscape:pageopacity="0.0"
     inkscape:pageshadow="2"
     inkscape:zoom="0.35"
     inkscape:cx="845.27322"
     inkscape:cy="591.03172"
     inkscape:document-units="px"
     inkscape:current-layer="layer1"
     showgrid="false"
     units="px"
     inkscape:window-width="1366"
     inkscape:window-height="704"
     inkscape:window-x="0"
     inkscape:window-y="27"
     inkscape:window-maximized="1"
     inkscape:document-rotation="0"
     inkscape:snap-global="false" />
  <metadata
     id="metadata5">
    <rdf:RDF>
      <cc:Work
         rdf:about="">
        <dc:format>image/svg+xml</dc:format>
        <dc:type
           rdf:resource="http://purl.org/dc/dcmitype/StillImage" />
        <dc:title />
      </cc:Work>
    </rdf:RDF>
  </metadata>
  <g
     inkscape:label="Layer 1"
     inkscape:groupmode="layer"
     id="layer1"
     transform="translate(0,274.50003)">
    <path
       id="path838"
       style="fill:purple;stroke:black;stroke-width:4.99999;stroke-linecap:round;stroke-linejoin:round;stroke-miterlimit:4;stroke-dasharray:none;stroke-opacity:1"
       inkscape:transform-center-x="0.96746032"
       inkscape:transform-center-y="-5.3587042"
       d="M 300.36133 75.908203 C 299.07864 76.045022 109.17053 247.54855 108.9043 248.81055 C 108.63807 250.07254 213.08888 483.65569 214.20703 484.29883 C 214.61372 484.53275 248.86871 481.05145 291.91797 476.53516 L 291.83984 384.73047 L 291.75781 288.86133 L 399.92383 288.86133 L 506.75195 288.86133 C 507.15316 286.94612 507.55305 285.03634 507.94727 283.15234 L 399.92383 283.15234 L 291.75586 283.15234 L 291.83789 234.54297 L 291.92188 185.93359 L 293 183.94531 C 294.28993 181.56652 295.97343 179.9714 298.38672 178.83984 L 300.16797 178.00391 L 399.92383 178.00391 L 478.78125 178.00391 C 413.83803 140.38236 301.27737 75.810492 300.36133 75.908203 z M 507.94141 194.96484 L 508.00977 234.54297 L 508.0918 282.45898 C 517.10636 239.37098 524.186 204.96857 523.99219 204.53516 C 523.90986 204.35105 517.15577 200.35875 507.94141 194.96484 z M 313.9668 200.04883 L 313.9668 227.80273 L 313.9668 255.55664 L 399.92383 255.55664 L 485.88281 255.55664 L 485.88281 227.80273 L 485.88281 200.04883 L 399.92383 200.04883 L 313.9668 200.04883 z M 377.75195 305.375 C 373.52283 305.37254 369.29664 305.46198 368.03516 305.64453 C 364.14382 306.20779 360.99658 308.50204 359.37891 311.95312 C 358.55939 313.7015 358.53125 313.94624 358.53125 319.4707 C 358.53125 324.63361 358.59578 325.31867 359.20898 326.64453 C 360.51065 329.45964 363.2461 331.81007 366.39258 332.81641 C 367.42304 333.14598 370.16369 333.22828 378.35547 333.17578 L 388.98047 333.10938 L 390.83203 332.17188 C 393.22886 330.9585 395.54939 328.42455 396.4375 326.05078 C 397.05598 324.39777 397.11023 323.72816 397.01562 318.83594 L 396.91016 313.44336 L 395.82227 311.4375 C 394.03281 308.13707 391.2391 306.19891 387.48633 305.65625 C 386.21336 305.47219 381.98108 305.37746 377.75195 305.375 z M 477.66602 305.375 C 473.43689 305.37254 469.21073 305.46198 467.94922 305.64453 C 464.05789 306.20779 460.91064 308.50204 459.29297 311.95312 C 458.47345 313.7015 458.44531 313.94624 458.44531 319.4707 C 458.44531 324.63361 458.50974 325.31867 459.12305 326.64453 C 460.42472 329.45964 463.16015 331.81007 466.30664 332.81641 C 467.33709 333.14598 470.07775 333.22828 478.26953 333.17578 L 488.89453 333.10938 L 490.74609 332.17188 C 493.14292 330.9585 495.46341 328.42455 496.35156 326.05078 C 496.97004 324.39777 497.02433 323.72816 496.92969 318.83594 L 496.82422 313.44336 L 495.73633 311.4375 C 493.94691 308.13707 491.15316 306.19891 487.40039 305.65625 C 486.12741 305.47219 481.89514 305.37746 477.66602 305.375 z M 327.76367 305.51367 C 317.57126 305.51367 317.2493 305.5323 315.48828 306.24414 C 312.95738 307.26677 310.72157 309.3807 309.46094 311.94141 C 308.47311 313.948 308.4197 314.24275 308.30664 318.35938 C 308.12178 325.0878 309.42346 328.68115 312.92188 331.0957 C 315.90755 333.15638 316.51153 333.24632 327.62695 333.25781 C 335.56109 333.26537 337.96796 333.17032 339.21875 332.79883 C 342.83053 331.72624 345.49953 329.02203 346.67188 325.24609 C 347.25395 323.37141 347.32363 322.50562 347.21289 318.58398 C 347.09584 314.44574 347.01186 313.91446 346.17773 312.08203 C 345.05016 309.60508 342.61225 307.28279 340.05469 306.25 C 338.27599 305.53174 337.9778 305.51367 327.76367 305.51367 z M 427.67773 305.51367 C 417.48529 305.51367 417.16334 305.5323 415.40234 306.24414 C 412.87142 307.26677 410.63566 309.3807 409.375 311.94141 C 408.38718 313.948 408.33375 314.24275 408.2207 318.35938 C 408.03588 325.0878 409.33753 328.68115 412.83594 331.0957 C 415.82161 333.15638 416.42558 333.24632 427.54102 333.25781 C 435.47515 333.26537 437.88202 333.17032 439.13281 332.79883 C 442.74457 331.72624 445.41357 329.02203 446.58594 325.24609 C 447.16798 323.37141 447.23769 322.50562 447.12695 318.58398 C 447.01017 314.44574 446.92605 313.91446 446.0918 312.08203 C 444.96421 309.60508 442.52636 307.28279 439.96875 306.25 C 438.19007 305.53174 437.89183 305.51367 427.67773 305.51367 z M 377.75195 349.78125 C 373.52283 349.77879 369.29664 349.86823 368.03516 350.05078 C 364.14382 350.61404 360.99658 352.90829 359.37891 356.35938 C 358.55939 358.10767 358.53125 358.35253 358.53125 363.87695 C 358.53125 369.03983 358.59578 369.72496 359.20898 371.05078 C 360.51065 373.86589 363.2461 376.21632 366.39258 377.22266 C 367.42304 377.55223 370.16369 377.63614 378.35547 377.58398 L 388.98047 377.51562 L 390.83203 376.57812 C 393.22886 375.36478 395.54939 372.83076 396.4375 370.45703 C 397.05598 368.80394 397.11023 368.13441 397.01562 363.24219 L 396.91016 357.84961 L 395.82227 355.84375 C 394.03281 352.54328 391.2391 350.60516 387.48633 350.0625 C 386.21336 349.87844 381.98108 349.78371 377.75195 349.78125 z M 477.66602 349.78125 C 473.43689 349.77879 469.21073 349.86823 467.94922 350.05078 C 464.05789 350.61404 460.91064 352.90829 459.29297 356.35938 C 458.47345 358.10767 458.44531 358.35253 458.44531 363.87695 C 458.44531 369.03983 458.50974 369.72496 459.12305 371.05078 C 460.42472 373.86589 463.16015 376.21632 466.30664 377.22266 C 467.33709 377.55223 470.07775 377.63614 478.26953 377.58398 L 488.04102 377.52148 C 489.72773 369.58873 491.53001 361.05847 493.29883 352.70312 C 491.71429 351.2842 489.74385 350.40137 487.40039 350.0625 C 486.12741 349.87844 481.89514 349.78371 477.66602 349.78125 z M 327.76367 349.91992 C 317.57126 349.91992 317.2493 349.93859 315.48828 350.65039 C 312.95738 351.67302 310.72157 353.78691 309.46094 356.34766 C 308.47311 358.35421 308.4197 358.649 308.30664 362.76562 C 308.12178 369.49409 309.42346 373.0874 312.92188 375.50195 C 315.90755 377.56263 316.51153 377.65257 327.62695 377.66406 C 335.56109 377.67162 337.96796 377.57657 339.21875 377.20508 C 342.83053 376.13249 345.49953 373.42824 346.67188 369.65234 C 347.25395 367.77766 347.32363 366.91191 347.21289 362.99023 C 347.09584 358.85203 347.01186 358.32075 346.17773 356.48828 C 345.05016 354.01141 342.61225 351.68904 340.05469 350.65625 C 338.27599 349.93795 337.9778 349.91992 327.76367 349.91992 z M 427.67773 349.91992 C 417.48529 349.91992 417.16334 349.93859 415.40234 350.65039 C 412.87142 351.67302 410.63566 353.78691 409.375 356.34766 C 408.38718 358.35421 408.33375 358.649 408.2207 362.76562 C 408.03588 369.49409 409.33753 373.0874 412.83594 375.50195 C 415.82161 377.56263 416.42558 377.65257 427.54102 377.66406 C 435.47515 377.67162 437.88202 377.57657 439.13281 377.20508 C 442.74457 376.13249 445.41357 373.42824 446.58594 369.65234 C 447.16798 367.77766 447.23769 366.91191 447.12695 362.99023 C 447.01017 358.85203 446.92605 358.32075 446.0918 356.48828 C 444.96421 354.01141 442.52636 351.68904 439.96875 350.65625 C 438.19007 349.93795 437.89183 349.91992 427.67773 349.91992 z M 377.75195 394.18945 C 373.52283 394.18747 369.29664 394.2765 368.03516 394.46094 C 364.14382 395.02416 360.99658 397.31844 359.37891 400.76953 C 358.55939 402.51787 358.53125 402.76265 358.53125 408.28711 C 358.53125 413.44998 358.59578 414.13512 359.20898 415.46094 C 360.51065 418.27604 363.2461 420.62651 366.39258 421.63281 C 367.42304 421.96239 370.16369 422.0463 378.35547 421.99414 L 388.98047 421.92578 L 390.83203 420.98828 L 390.83203 420.98438 C 393.22886 419.77103 395.54939 417.23701 396.4375 414.86328 C 397.05598 413.21023 397.11023 412.5407 397.01562 407.64844 L 396.91016 402.25586 L 395.82227 400.25 C 394.03281 396.94953 391.2391 395.01145 387.48633 394.46875 C 386.21336 394.28469 381.98108 394.19144 377.75195 394.18945 z M 327.76367 394.32617 C 317.57126 394.32617 317.2493 394.3448 315.48828 395.05664 C 312.95738 396.07923 310.72157 398.19313 309.46094 400.75391 C 308.47311 402.76046 308.4197 403.05525 308.30664 407.17188 C 308.12178 413.9003 309.42346 417.49365 312.92188 419.9082 C 315.90755 421.96888 316.51153 422.05882 327.62695 422.07031 C 335.56109 422.07787 337.96796 421.98282 339.21875 421.61133 C 342.83053 420.53874 345.49953 417.83453 346.67188 414.05859 C 347.25395 412.18395 347.32363 411.31816 347.21289 407.39648 C 347.09584 403.25824 347.01186 402.72696 346.17773 400.89453 C 345.05016 398.41762 342.61225 396.09529 340.05469 395.0625 C 338.27599 394.34424 337.9778 394.32617 327.76367 394.32617 z M 427.67773 394.32617 C 417.48529 394.32617 417.16334 394.3448 415.40234 395.05664 C 412.87142 396.07923 410.63566 398.19313 409.375 400.75391 C 408.38718 402.76046 408.33375 403.05525 408.2207 407.17188 C 408.03588 413.9003 409.33753 417.49365 412.83594 419.9082 C 415.82161 421.96888 416.42558 422.05882 427.54102 422.07031 C 435.47515 422.07787 437.88202 421.98282 439.13281 421.61133 C 442.74457 420.53874 445.41357 417.83453 446.58594 414.05859 C 447.16798 412.18395 447.23769 411.31816 447.12695 407.39648 C 447.01017 403.25824 446.92605 402.72696 446.0918 400.89453 C 444.96421 398.41762 442.52636 396.09529 439.96875 395.0625 C 438.19007 394.34424 437.89183 394.32617 427.67773 394.32617 z M 477.63477 394.32617 C 468.26513 394.32617 467.18167 394.38079 465.74023 394.92969 C 462.3432 396.22357 460.15232 398.40016 458.91211 401.71484 C 458.2858 403.38876 458.27517 404.01287 458.35938 430.91211 C 458.42267 451.15272 458.44292 456.47095 458.72266 458.47266 C 466.12266 457.61061 470.62326 457.04648 470.74609 456.93555 C 471.0535 456.65793 476.92257 429.59223 484.44141 394.37305 C 482.71873 394.33106 480.52287 394.32617 477.63477 394.32617 z M 377.75195 438.59375 C 373.52283 438.59129 369.29664 438.68073 368.03516 438.86328 C 364.14382 439.42651 360.99658 441.72083 359.37891 445.17188 C 358.55939 446.92025 358.53125 447.16499 358.53125 452.68945 C 358.53125 457.85233 358.59578 458.53746 359.20898 459.86328 C 360.51065 462.67839 363.2461 465.02886 366.39258 466.03516 C 367.42304 466.36473 370.16369 466.44864 378.35547 466.39648 L 387.64258 466.33594 C 388.18084 466.2777 388.78453 466.21425 389.32031 466.15625 L 390.83203 465.39062 C 393.22886 464.17728 395.54939 461.64326 396.4375 459.26953 C 397.05598 457.61648 397.11023 456.94695 397.01562 452.05469 L 396.91016 446.66211 L 395.82227 444.65625 C 394.03281 441.35578 391.2391 439.4177 387.48633 438.875 C 386.21336 438.69094 381.98108 438.59621 377.75195 438.59375 z M 327.76367 438.73242 C 317.57126 438.73242 317.2493 438.75105 315.48828 439.46289 C 312.95738 440.48548 310.72157 442.59945 309.46094 445.16016 C 308.47311 447.16671 308.4197 447.4615 308.30664 451.57812 C 308.12178 458.30659 309.42346 461.8999 312.92188 464.31445 C 315.90755 466.37516 316.51153 466.46507 327.62695 466.47656 C 335.56109 466.48412 337.96796 466.38911 339.21875 466.01758 C 342.83053 464.94502 345.49953 462.24074 346.67188 458.46484 C 347.25395 456.5902 347.32363 455.72445 347.21289 451.80273 C 347.09584 447.66453 347.01186 447.13321 346.17773 445.30078 C 345.05016 442.82387 342.61225 440.50154 340.05469 439.46875 C 338.27599 438.75049 337.9778 438.73242 327.76367 438.73242 z M 427.67773 438.73242 C 417.48529 438.73242 417.16334 438.75105 415.40234 439.46289 C 412.87142 440.48548 410.63566 442.59945 409.375 445.16016 C 408.38718 447.16671 408.33375 447.4615 408.2207 451.57812 C 408.05139 457.74204 409.13597 461.27195 412.00781 463.67773 C 425.41066 462.21166 436.57805 460.97115 446.03906 459.90234 C 446.24552 459.44119 446.43069 458.96486 446.58594 458.46484 C 447.16798 456.5902 447.23769 455.72445 447.12695 451.80273 C 447.01017 447.66453 446.92605 447.13321 446.0918 445.30078 C 444.96421 442.82387 442.52636 440.50154 439.96875 439.46875 C 438.19007 438.75049 437.89183 438.73242 427.67773 438.73242 z "
       transform="matrix(0.26458334,0,0,0.26458334,0,-274.50003)" />
    <text
       xml:space="preserve"
       id="text840"
       style="font-style:normal;font-variant:normal;font-weight:bold;font-stretch:normal;font-size:22.5778px;line-height:125%;font-family:'Gill Sans MT';-inkscape-font-specification:'Gill Sans MT Bold';text-align:center;letter-spacing:0px;word-spacing:0px;white-space:pre;shape-inside:url(#rect842);fill:black;fill-opacity:1;stroke:none;stroke-width:0.264583px;stroke-linecap:butt;stroke-linejoin:miter;stroke-opacity:1;"
       x="34.616322"
       y="0"
       transform="translate(-2.6121053,-0.67696127)"><tspan
         x="13.644715"
         y="-117.52945"><tspan>ARITHMETIC</tspan></tspan></text>
  </g>
</svg>
