<?xml version="1.0" encoding="UTF-8" standalone="no"?>
<svg
   xmlns:dc="http://purl.org/dc/elements/1.1/"
   xmlns:cc="http://creativecommons.org/ns#"
   xmlns:rdf="http://www.w3.org/1999/02/22-rdf-syntax-ns#"
   xmlns:svg="http://www.w3.org/2000/svg"
   xmlns="http://www.w3.org/2000/svg"
   xmlns:xlink="http://www.w3.org/1999/xlink"
   xmlns:sodipodi="http://sodipodi.sourceforge.net/DTD/sodipodi-0.dtd"
   xmlns:inkscape="http://www.inkscape.org/namespaces/inkscape"
   width="3840"
   height="2160"
   viewBox="0 0 1016 571.50002"
   version="1.1"
   id="svg8"
   inkscape:version="1.0.2 (e86c870879, 2021-01-15)"
   sodipodi:docname="pipeline.svg">
  <defs
     id="defs2">
    <marker
       style="overflow:visible;"
       id="marker6051"
       refX="0.0"
       refY="0.0"
       orient="auto"
       inkscape:stockid="Arrow1Mend"
       inkscape:isstock="true">
      <path
         transform="scale(0.4) rotate(180) translate(10,0)"
         style="fill-rule:evenodd;stroke:black;stroke-width:1pt;stroke-opacity:1;fill:black;fill-opacity:1"
         d="M 0.0,0.0 L 5.0,-5.0 L -12.5,0.0 L 5.0,5.0 L 0.0,0.0 z "
         id="path6049" />
    </marker>
    <marker
       style="overflow:visible;"
       id="marker5957"
       refX="0.0"
       refY="0.0"
       orient="auto"
       inkscape:stockid="Arrow1Mend"
       inkscape:isstock="true">
      <path
         transform="scale(0.4) rotate(180) translate(10,0)"
         style="fill-rule:evenodd;stroke:black;stroke-width:1pt;stroke-opacity:1;fill:purple;fill-opacity:1"
         d="M 0.0,0.0 L 5.0,-5.0 L -12.5,0.0 L 5.0,5.0 L 0.0,0.0 z "
         id="path5955" />
    </marker>
    <marker
       style="overflow:visible;"
       id="marker5838"
       refX="0.0"
       refY="0.0"
       orient="auto"
       inkscape:stockid="Arrow1Mend"
       inkscape:isstock="true">
      <path
         transform="scale(0.4) rotate(180) translate(10,0)"
         style="fill-rule:evenodd;stroke:black;stroke-width:1pt;stroke-opacity:1"
         d="M 0.0,0.0 L 5.0,-5.0 L -12.5,0.0 L 5.0,5.0 L 0.0,0.0 z "
         id="path5836" />
    </marker>
    <marker
       style="overflow:visible;"
       id="marker5656"
       refX="0.0"
       refY="0.0"
       orient="auto"
       inkscape:stockid="Arrow1Mend"
       inkscape:isstock="true"
       inkscape:collect="always">
      <path
         transform="scale(0.4) rotate(180) translate(10,0)"
         style="fill-rule:evenodd;stroke:black;stroke-width:1pt;stroke-opacity:1;fill:purple;fill-opacity:1"
         d="M 0.0,0.0 L 5.0,-5.0 L -12.5,0.0 L 5.0,5.0 L 0.0,0.0 z "
         id="path5654" />
    </marker>
    <marker
       style="overflow:visible;"
       id="marker5554"
       refX="0.0"
       refY="0.0"
       orient="auto"
       inkscape:stockid="Arrow1Mend"
       inkscape:isstock="true"
       inkscape:collect="always">
      <path
         transform="scale(0.4) rotate(180) translate(10,0)"
         style="fill-rule:evenodd;stroke:black;stroke-width:1pt;stroke-opacity:1"
         d="M 0.0,0.0 L 5.0,-5.0 L -12.5,0.0 L 5.0,5.0 L 0.0,0.0 z "
         id="path5552" />
    </marker>
    <marker
       style="overflow:visible;"
       id="marker5466"
       refX="0.0"
       refY="0.0"
       orient="auto"
       inkscape:stockid="Arrow1Mend"
       inkscape:isstock="true"
       inkscape:collect="always">
      <path
         transform="scale(0.4) rotate(180) translate(10,0)"
         style="fill-rule:evenodd;stroke:black;stroke-width:1pt;stroke-opacity:1"
         d="M 0.0,0.0 L 5.0,-5.0 L -12.5,0.0 L 5.0,5.0 L 0.0,0.0 z "
         id="path5464" />
    </marker>
    <marker
       style="overflow:visible;"
       id="marker5386"
       refX="0.0"
       refY="0.0"
       orient="auto"
       inkscape:stockid="Arrow1Mend"
       inkscape:isstock="true"
       inkscape:collect="always">
      <path
         transform="scale(0.4) rotate(180) translate(10,0)"
         style="fill-rule:evenodd;stroke:black;stroke-width:1pt;stroke-opacity:1"
         d="M 0.0,0.0 L 5.0,-5.0 L -12.5,0.0 L 5.0,5.0 L 0.0,0.0 z "
         id="path5384" />
    </marker>
    <marker
       style="overflow:visible;"
       id="marker5308"
       refX="0.0"
       refY="0.0"
       orient="auto"
       inkscape:stockid="Arrow1Mend"
       inkscape:isstock="true"
       inkscape:collect="always">
      <path
         transform="scale(0.4) rotate(180) translate(10,0)"
         style="fill-rule:evenodd;stroke:black;stroke-width:1pt;stroke-opacity:1;fill:purple;fill-opacity:1"
         d="M 0.0,0.0 L 5.0,-5.0 L -12.5,0.0 L 5.0,5.0 L 0.0,0.0 z "
         id="path5306" />
    </marker>
    <marker
       style="overflow:visible"
       id="Arrow1Mstart"
       refX="0.0"
       refY="0.0"
       orient="auto"
       inkscape:stockid="Arrow1Mstart"
       inkscape:isstock="true">
      <path
         transform="scale(0.4) translate(10,0)"
         style="fill-rule:evenodd;stroke:black;stroke-width:1pt;stroke-opacity:1"
         d="M 0.0,0.0 L 5.0,-5.0 L -12.5,0.0 L 5.0,5.0 L 0.0,0.0 z "
         id="path4828" />
    </marker>
    <marker
       style="overflow:visible;"
       id="Arrow1Mend"
       refX="0.0"
       refY="0.0"
       orient="auto"
       inkscape:stockid="Arrow1Mend"
       inkscape:isstock="true"
       inkscape:collect="always">
      <path
         transform="scale(0.4) rotate(180) translate(10,0)"
         style="fill-rule:evenodd;stroke:black;stroke-width:1pt;stroke-opacity:1"
         d="M 0.0,0.0 L 5.0,-5.0 L -12.5,0.0 L 5.0,5.0 L 0.0,0.0 z "
         id="path4831" />
    </marker>
    <marker
       style="overflow:visible;"
       id="Arrow2Lend"
       refX="0.0"
       refY="0.0"
       orient="auto"
       inkscape:stockid="Arrow2Lend"
       inkscape:isstock="true">
      <path
         transform="scale(1.1) rotate(180) translate(1,0)"
         d="M 8.7185878,4.0337352 L -2.2072895,0.016013256 L 8.7185884,-4.0017078 C 6.9730900,-1.6296469 6.9831476,1.6157441 8.7185878,4.0337352 z "
         style="fill-rule:evenodd;stroke-width:0.625;stroke-linejoin:round;stroke:black;stroke-opacity:1"
         id="path4843" />
    </marker>
    <marker
       style="overflow:visible"
       id="Arrow1Lstart"
       refX="0.0"
       refY="0.0"
       orient="auto"
       inkscape:stockid="Arrow1Lstart"
       inkscape:isstock="true">
      <path
         transform="scale(0.8) translate(12.5,0)"
         style="fill-rule:evenodd;stroke:black;stroke-width:1pt;stroke-opacity:1"
         d="M 0.0,0.0 L 5.0,-5.0 L -12.5,0.0 L 5.0,5.0 L 0.0,0.0 z "
         id="path4822" />
    </marker>
    <marker
       style="overflow:visible;"
       id="Arrow1Lend"
       refX="0.0"
       refY="0.0"
       orient="auto"
       inkscape:stockid="Arrow1Lend"
       inkscape:isstock="true">
      <path
         transform="scale(0.8) rotate(180) translate(12.5,0)"
         style="fill-rule:evenodd;stroke:black;stroke-width:1pt;stroke-opacity:1"
         d="M 0.0,0.0 L 5.0,-5.0 L -12.5,0.0 L 5.0,5.0 L 0.0,0.0 z "
         id="path4825" />
    </marker>
    <rect
       x="221.90253"
       y="89.919455"
       width="227.75968"
       height="107.91622"
       id="rect4779" />
    <rect
       x="247.71818"
       y="-79.544595"
       width="325.17977"
       height="329.12831"
       id="rect895" />
    <rect
       x="11.589755"
       y="-250.68578"
       width="522.98301"
       height="542.82328"
       id="rect889" />
    <rect
       x="11.589755"
       y="-250.68578"
       width="522.98301"
       height="542.82328"
       id="rect903" />
    <rect
       x="11.589755"
       y="-250.68578"
       width="522.98301"
       height="542.82328"
       id="rect909" />
    <rect
       x="11.589755"
       y="-250.68578"
       width="522.98301"
       height="542.82328"
       id="rect915" />
    <rect
       x="11.589755"
       y="-250.68578"
       width="522.98301"
       height="542.82328"
       id="rect939" />
    <rect
       x="11.589755"
       y="-250.68578"
       width="522.98301"
       height="542.82328"
       id="rect949" />
    <rect
       x="11.589755"
       y="-250.68578"
       width="522.98301"
       height="542.82328"
       id="rect951" />
    <rect
       x="3.9804926"
       y="-137.29098"
       width="170.27429"
       height="39.139292"
       id="rect842" />
    <rect
       x="247.71819"
       y="-79.544594"
       width="325.17978"
       height="329.1283"
       id="rect895-9" />
    <rect
       x="11.589755"
       y="-250.68578"
       width="522.98303"
       height="542.8233"
       id="rect889-3" />
    <rect
       x="11.589755"
       y="-250.68578"
       width="522.98303"
       height="542.8233"
       id="rect903-6" />
    <rect
       x="11.589755"
       y="-250.68578"
       width="522.98303"
       height="542.8233"
       id="rect909-0" />
    <rect
       x="11.589755"
       y="-250.68578"
       width="522.98303"
       height="542.8233"
       id="rect915-6" />
    <rect
       x="11.589755"
       y="-250.68578"
       width="522.98303"
       height="542.8233"
       id="rect939-2" />
    <rect
       x="11.589755"
       y="-250.68578"
       width="522.98303"
       height="542.8233"
       id="rect949-6" />
    <rect
       x="11.589755"
       y="-250.68578"
       width="522.98303"
       height="542.8233"
       id="rect951-1" />
    <rect
       x="234.58782"
       y="-227.69129"
       width="141.01675"
       height="114.49869"
       id="rect3738" />
    <rect
       x="3.9804926"
       y="-137.29098"
       width="170.27429"
       height="39.139292"
       id="rect842-2" />
    <rect
       x="247.71819"
       y="-79.544594"
       width="325.17978"
       height="329.1283"
       id="rect895-3" />
    <rect
       x="11.589755"
       y="-250.68578"
       width="522.98303"
       height="542.8233"
       id="rect889-7" />
    <rect
       x="11.589755"
       y="-250.68578"
       width="522.98303"
       height="542.8233"
       id="rect903-5" />
    <rect
       x="11.589755"
       y="-250.68578"
       width="522.98303"
       height="542.8233"
       id="rect909-9" />
    <rect
       x="11.589755"
       y="-250.68578"
       width="522.98303"
       height="542.8233"
       id="rect915-2" />
    <rect
       x="11.589755"
       y="-250.68578"
       width="522.98303"
       height="542.8233"
       id="rect939-28" />
    <rect
       x="11.589755"
       y="-250.68578"
       width="522.98303"
       height="542.8233"
       id="rect949-9" />
    <rect
       x="11.589755"
       y="-250.68578"
       width="522.98303"
       height="542.8233"
       id="rect951-7" />
    <rect
       x="3.9804926"
       y="-137.29099"
       width="170.27429"
       height="39.139294"
       id="rect842-7" />
    <rect
       x="3.9804926"
       y="-137.29099"
       width="170.27429"
       height="39.139294"
       id="rect1600" />
    <rect
       x="3.9804926"
       y="-137.29098"
       width="170.27429"
       height="39.139292"
       id="rect842-1" />
    <rect
       x="247.71819"
       y="-79.544594"
       width="325.17978"
       height="329.1283"
       id="rect895-94" />
    <rect
       x="11.589755"
       y="-250.68578"
       width="522.98303"
       height="542.8233"
       id="rect889-78" />
    <rect
       x="11.589755"
       y="-250.68578"
       width="522.98303"
       height="542.8233"
       id="rect903-4" />
    <rect
       x="11.589755"
       y="-250.68578"
       width="522.98303"
       height="542.8233"
       id="rect909-5" />
    <rect
       x="11.589755"
       y="-250.68578"
       width="522.98303"
       height="542.8233"
       id="rect915-0" />
    <rect
       x="11.589755"
       y="-250.68578"
       width="522.98303"
       height="542.8233"
       id="rect939-3" />
    <rect
       x="11.589755"
       y="-250.68578"
       width="522.98303"
       height="542.8233"
       id="rect949-61" />
    <rect
       x="11.589755"
       y="-250.68578"
       width="522.98303"
       height="542.8233"
       id="rect951-0" />
    <rect
       x="3.9804926"
       y="-137.29098"
       width="170.27429"
       height="39.139292"
       id="rect842-5" />
    <rect
       x="247.71819"
       y="-79.544594"
       width="325.17978"
       height="329.1283"
       id="rect895-4" />
    <rect
       x="11.589755"
       y="-250.68578"
       width="522.98303"
       height="542.8233"
       id="rect889-76" />
    <rect
       x="11.589755"
       y="-250.68578"
       width="522.98303"
       height="542.8233"
       id="rect903-56" />
    <rect
       x="11.589755"
       y="-250.68578"
       width="522.98303"
       height="542.8233"
       id="rect909-93" />
    <rect
       x="11.589755"
       y="-250.68578"
       width="522.98303"
       height="542.8233"
       id="rect915-7" />
    <rect
       x="11.589755"
       y="-250.68578"
       width="522.98303"
       height="542.8233"
       id="rect939-4" />
    <rect
       x="11.589755"
       y="-250.68578"
       width="522.98303"
       height="542.8233"
       id="rect949-5" />
    <rect
       x="11.589755"
       y="-250.68578"
       width="522.98303"
       height="542.8233"
       id="rect951-2" />
    <rect
       x="3.9804926"
       y="-137.29098"
       width="170.27429"
       height="39.139292"
       id="rect842-0" />
    <rect
       x="247.71819"
       y="-79.544594"
       width="325.17978"
       height="329.1283"
       id="rect895-7" />
    <rect
       x="11.589755"
       y="-250.68578"
       width="522.98303"
       height="542.8233"
       id="rect889-8" />
    <rect
       x="11.589755"
       y="-250.68578"
       width="522.98303"
       height="542.8233"
       id="rect903-68" />
    <rect
       x="11.589755"
       y="-250.68578"
       width="522.98303"
       height="542.8233"
       id="rect909-8" />
    <rect
       x="11.589755"
       y="-250.68578"
       width="522.98303"
       height="542.8233"
       id="rect915-4" />
    <rect
       x="11.589755"
       y="-250.68578"
       width="522.98303"
       height="542.8233"
       id="rect939-31" />
    <rect
       x="11.589755"
       y="-250.68578"
       width="522.98303"
       height="542.8233"
       id="rect949-4" />
    <rect
       x="11.589755"
       y="-250.68578"
       width="522.98303"
       height="542.8233"
       id="rect951-9" />
    <rect
       x="3.9804926"
       y="-137.29098"
       width="170.27429"
       height="39.139292"
       id="rect842-6" />
    <rect
       x="247.71819"
       y="-79.544594"
       width="325.17978"
       height="329.1283"
       id="rect895-49" />
    <rect
       x="11.589755"
       y="-250.68578"
       width="522.98303"
       height="542.8233"
       id="rect889-5" />
    <rect
       x="11.589755"
       y="-250.68578"
       width="522.98303"
       height="542.8233"
       id="rect903-0" />
    <rect
       x="11.589755"
       y="-250.68578"
       width="522.98303"
       height="542.8233"
       id="rect909-4" />
    <rect
       x="11.589755"
       y="-250.68578"
       width="522.98303"
       height="542.8233"
       id="rect915-8" />
    <rect
       x="11.589755"
       y="-250.68578"
       width="522.98303"
       height="542.8233"
       id="rect939-7" />
    <rect
       x="11.589755"
       y="-250.68578"
       width="522.98303"
       height="542.8233"
       id="rect949-1" />
    <rect
       x="11.589755"
       y="-250.68578"
       width="522.98303"
       height="542.8233"
       id="rect951-72" />
    <rect
       x="3.9804926"
       y="-137.29099"
       width="170.27429"
       height="39.139294"
       id="rect842-7-7" />
    <rect
       x="3.9804926"
       y="-137.29099"
       width="170.27429"
       height="39.139294"
       id="rect1600-2" />
    <rect
       x="3.9804926"
       y="-137.29098"
       width="170.27429"
       height="39.139292"
       id="rect842-4" />
    <rect
       x="247.71819"
       y="-79.544594"
       width="325.17978"
       height="329.1283"
       id="rect895-90" />
    <rect
       x="11.589755"
       y="-250.68578"
       width="522.98303"
       height="542.8233"
       id="rect889-9" />
    <rect
       x="11.589755"
       y="-250.68578"
       width="522.98303"
       height="542.8233"
       id="rect903-1" />
    <rect
       x="11.589755"
       y="-250.68578"
       width="522.98303"
       height="542.8233"
       id="rect909-7" />
    <rect
       x="11.589755"
       y="-250.68578"
       width="522.98303"
       height="542.8233"
       id="rect915-71" />
    <rect
       x="11.589755"
       y="-250.68578"
       width="522.98303"
       height="542.8233"
       id="rect939-1" />
    <rect
       x="11.589755"
       y="-250.68578"
       width="522.98303"
       height="542.8233"
       id="rect949-59" />
    <rect
       x="11.589755"
       y="-250.68578"
       width="522.98303"
       height="542.8233"
       id="rect951-77" />
    <rect
       x="3.9804926"
       y="-137.29099"
       width="170.27429"
       height="39.139294"
       id="rect842-7-6" />
    <rect
       x="3.9804926"
       y="-137.29099"
       width="170.27429"
       height="39.139294"
       id="rect1600-7" />
    <rect
       x="3.9804926"
       y="-137.29098"
       width="170.27429"
       height="39.139292"
       id="rect842-8" />
    <rect
       x="247.71819"
       y="-79.544594"
       width="325.17978"
       height="329.1283"
       id="rect895-1" />
    <rect
       x="11.589755"
       y="-250.68578"
       width="522.98303"
       height="542.8233"
       id="rect889-2" />
    <rect
       x="11.589755"
       y="-250.68578"
       width="522.98303"
       height="542.8233"
       id="rect903-9" />
    <rect
       x="11.589755"
       y="-250.68578"
       width="522.98303"
       height="542.8233"
       id="rect909-3" />
    <rect
       x="11.589755"
       y="-250.68578"
       width="522.98303"
       height="542.8233"
       id="rect915-9" />
    <rect
       x="11.589755"
       y="-250.68578"
       width="522.98303"
       height="542.8233"
       id="rect939-0" />
    <rect
       x="11.589755"
       y="-250.68578"
       width="522.98303"
       height="542.8233"
       id="rect949-8" />
    <rect
       x="11.589755"
       y="-250.68578"
       width="522.98303"
       height="542.8233"
       id="rect951-8" />
    <rect
       x="3.9804926"
       y="-137.29099"
       width="170.27429"
       height="39.139294"
       id="rect842-7-5" />
    <rect
       x="3.9804926"
       y="-137.29099"
       width="170.27429"
       height="39.139294"
       id="rect1600-0" />
    <rect
       x="3.9804926"
       y="-137.29099"
       width="170.27429"
       height="39.139294"
       id="rect842-5-5" />
    <rect
       x="3.9804926"
       y="-137.29099"
       width="170.27429"
       height="39.139294"
       id="rect6338" />
    <rect
       x="3.9804926"
       y="-137.29099"
       width="170.27429"
       height="39.139294"
       id="rect842-4-1" />
    <rect
       x="3.9804926"
       y="-137.29099"
       width="170.27429"
       height="39.139294"
       id="rect6387" />
  </defs>
  <sodipodi:namedview
     id="base"
     pagecolor="#ffffff"
     bordercolor="#666666"
     borderopacity="1.0"
     inkscape:pageopacity="0.0"
     inkscape:pageshadow="2"
     inkscape:zoom="0.175"
     inkscape:cx="2023.655"
     inkscape:cy="1017.1326"
     inkscape:document-units="px"
     inkscape:current-layer="layer3"
     showgrid="false"
     units="px"
     inkscape:window-width="1366"
     inkscape:window-height="704"
     inkscape:window-x="0"
     inkscape:window-y="27"
     inkscape:window-maximized="1"
     inkscape:document-rotation="0"
     inkscape:snap-global="false" />
  <metadata
     id="metadata5">
    <rdf:RDF>
      <cc:Work
         rdf:about="">
        <dc:format>image/svg+xml</dc:format>
        <dc:type
           rdf:resource="http://purl.org/dc/dcmitype/StillImage" />
        <dc:title></dc:title>
      </cc:Work>
    </rdf:RDF>
  </metadata>
  <g
     inkscape:groupmode="layer"
     id="layer2"
     inkscape:label="arrows"
     style="opacity:0.72157729">
    <path
       style="fill:none;fill-rule:evenodd;stroke:black;stroke-width:3.96875007;stroke-linecap:butt;stroke-linejoin:miter;stroke-miterlimit:4.5;stroke-dasharray:none;stroke-opacity:1;marker-end:url(#Arrow1Mend)"
       d="M 561.99838,320.40773 162.4161,426.98928"
       id="path4812"
       sodipodi:nodetypes="cc" />
    <path
       style="fill:none;fill-rule:evenodd;stroke:black;stroke-width:3.96875;stroke-linecap:butt;stroke-linejoin:miter;stroke-miterlimit:4.5;stroke-dasharray:none;stroke-opacity:1;marker-end:url(#marker5308)"
       d="M 561.99838,320.40773 301.00205,435.68061"
       id="path5304"
       sodipodi:nodetypes="cc" />
    <path
       style="fill:none;fill-rule:evenodd;stroke:black;stroke-width:3.96875;stroke-linecap:butt;stroke-linejoin:miter;stroke-miterlimit:4.5;stroke-dasharray:none;stroke-opacity:1;marker-end:url(#marker5386)"
       d="M 561.99838,320.40773 487.55065,438.86212"
       id="path5382"
       sodipodi:nodetypes="cc" />
    <path
       style="fill:none;fill-rule:evenodd;stroke:black;stroke-width:3.96875;stroke-linecap:butt;stroke-linejoin:miter;stroke-miterlimit:4.5;stroke-dasharray:none;stroke-opacity:1;marker-end:url(#marker5466)"
       d="m 561.99838,320.40773 37.44974,93.18314"
       id="path5462"
       sodipodi:nodetypes="cc" />
    <path
       style="fill:none;fill-rule:evenodd;stroke:black;stroke-width:3.96875;stroke-linecap:butt;stroke-linejoin:miter;stroke-miterlimit:4.5;stroke-dasharray:none;stroke-opacity:1;marker-end:url(#marker5554)"
       d="M 561.99838,320.40773 721.54993,420.65841"
       id="path5550"
       sodipodi:nodetypes="cc" />
    <path
       style="fill:none;fill-rule:evenodd;stroke:black;stroke-width:3.96875;stroke-linecap:butt;stroke-linejoin:miter;stroke-miterlimit:4.5;stroke-dasharray:none;stroke-opacity:1;marker-end:url(#marker5656)"
       d="M 561.99838,320.40773 896.44356,466.88916"
       id="path5652"
       sodipodi:nodetypes="cc" />
    <path
       style="fill:none;fill-rule:evenodd;stroke:black;stroke-width:3.96875;stroke-linecap:butt;stroke-linejoin:miter;stroke-miterlimit:4.5;stroke-dasharray:none;stroke-opacity:1;marker-end:url(#marker5838)"
       d="m 557.90095,130.96613 9.73557,140.43385"
       id="path5834"
       sodipodi:nodetypes="cc" />
  </g>
  <g
     inkscape:groupmode="layer"
     id="layer3"
     inkscape:label="pipeline">
    <path
       style="opacity:0.801231;fill:black;fill-opacity:1;fill-rule:evenodd;stroke:black;stroke-width:10.5833;stroke-linecap:round;stroke-linejoin:miter;stroke-miterlimit:4;stroke-dasharray:none;stroke-opacity:1;marker-end:url(#marker6051)"
       d="M 143.36348,121.39189 844.968,117.30035"
       id="path5947" />
  </g>
  <g
     inkscape:label="shapes"
     inkscape:groupmode="layer"
     id="layer1"
     transform="translate(0,274.50003)">
    <g
       inkscape:label="Layer 1"
       id="layer1-9"
       transform="translate(184.14997,399.76904)">
      <path
         sodipodi:type="star"
         style="fill:purple;stroke:black;stroke-width:2.39569;stroke-linecap:round;stroke-linejoin:round;stroke-miterlimit:4;stroke-dasharray:none;stroke-opacity:1"
         id="path838"
         sodipodi:sides="5"
         sodipodi:cx="121.80975"
         sodipodi:cy="-221.34612"
         sodipodi:r1="105.14475"
         sodipodi:r2="48.281712"
         sodipodi:arg1="0.83619714"
         sodipodi:arg2="1.4645156"
         inkscape:flatsided="true"
         inkscape:rounded="0.005"
         inkscape:randomized="0"
         d="m 192.2872,-143.31825 c -0.45863,0.41426 -122.371919,13.42029 -122.907626,13.11211 -0.535708,-0.30818 -50.578456,-112.23552 -50.450905,-112.84024 0.127551,-0.60472 91.112721,-82.78565 91.727261,-82.85121 0.61453,-0.0656 106.88921,61.07117 107.14146,61.63537 0.25226,0.5642 -25.05155,120.52971 -25.51019,120.94397 z"
         inkscape:transform-center-x="0.96746032"
         inkscape:transform-center-y="-5.3587042"
         transform="matrix(0.55225002,0,0,0.55216233,18.360857,-74.467779)" />
      <text
         xml:space="preserve"
         id="text840"
         style="font-style:normal;font-variant:normal;font-weight:bold;font-stretch:normal;font-size:22.5778px;line-height:125%;font-family:'Gill Sans MT';-inkscape-font-specification:'Gill Sans MT Bold';text-align:center;letter-spacing:0px;word-spacing:0px;white-space:pre;shape-inside:url(#rect842);fill:black;fill-opacity:1;stroke:none;stroke-width:0.264583px;stroke-linecap:butt;stroke-linejoin:miter;stroke-opacity:1;"
         x="34.616322"
         y="0"
         transform="translate(-2.6121053,-0.67696127)"><tspan
           x="28.593688"
           y="-117.52945"><tspan
             style="font-style:normal;font-variant:normal;font-weight:bold;font-stretch:normal;font-size:22.5778px;font-family:'Gill Sans MT';-inkscape-font-specification:'Gill Sans MT Bold';text-align:center;text-anchor:middle">CONTROL</tspan></tspan></text>
    </g>
    <g
       inkscape:label="Layer 1"
       id="layer1-1"
       transform="translate(478.58019,241.12432)">
      <text
         xml:space="preserve"
         id="text840-2"
         style="font-style:normal;font-variant:normal;font-weight:bold;font-stretch:normal;font-size:22.5778px;line-height:125%;font-family:'Gill Sans MT';-inkscape-font-specification:'Gill Sans MT Bold';text-align:center;letter-spacing:0px;word-spacing:0px;white-space:pre;shape-inside:url(#rect842-2);fill:black;fill-opacity:1;stroke:none;stroke-width:0.264583px;stroke-linecap:butt;stroke-linejoin:miter;stroke-opacity:1;"
         x="34.616322"
         y="0"
         transform="translate(-2.6121053,-0.67696127)"><tspan
           x="17.38747"
           y="-117.52945"><tspan>DOCUMENT</tspan></tspan></text>
      <path
         id="path3772"
         style="fill:red;fill-rule:evenodd;stroke:black;stroke-width:5;stroke-linecap:butt;stroke-linejoin:miter;stroke-miterlimit:4;stroke-dasharray:none;stroke-opacity:1"
         d="m 240.88867,92.056641 c -16.22466,-0.03077 -34.07782,4.84331 -46.24023,15.654299 C 24.363943,261.05038 322.64669,371.46809 330.06057,459.36914 389.99886,379.99186 500.1201,305.58095 518.71879,207.85938 522.39149,171.07681 498.74571,132.23826 471.08793,107.71289 458.82735,96.840888 440.83332,91.948205 424.48637,92.060547 408.2619,92.172432 392.34546,97.710953 378.33207,108.12109 352.70624,127.15663 335.8,160.6757 332.86723,198.26172 329.93485,160.67618 313.02938,127.15721 287.4043,108.12109 273.39091,97.710952 257.47447,92.172431 241.25,92.060547 v -0.002 c -0.12044,-9.5e-4 -0.24089,-0.0016 -0.36133,-0.002 z"
         transform="matrix(0.26458334,0,0,0.26458334,0,-274.50003)"
         sodipodi:nodetypes="ccccacccscccc" />
    </g>
    <g
       inkscape:label="Layer 1"
       id="layer1-7"
       transform="translate(842.95382,45.215898)">
      <text
         xml:space="preserve"
         id="text840-4"
         style="font-style:normal;font-variant:normal;font-weight:bold;font-stretch:normal;font-size:22.5778px;line-height:125%;font-family:'Gill Sans MT';-inkscape-font-specification:'Gill Sans MT Bold';text-align:center;letter-spacing:0px;word-spacing:0px;white-space:pre;shape-inside:url(#rect842-5);fill:black;fill-opacity:1;stroke:none;stroke-width:0.264583px;stroke-linecap:butt;stroke-linejoin:miter;stroke-opacity:1;"
         x="34.616322"
         y="0"
         transform="translate(-2.6121053,-0.67696127)"><tspan
           x="53.034599"
           y="-117.52945"><tspan
             style="font-style:normal;font-variant:normal;font-weight:bold;font-stretch:normal;font-size:22.5778px;font-family:'Gill Sans MT';-inkscape-font-specification:'Gill Sans MT Bold';text-align:center;text-anchor:middle">MODE</tspan></tspan></text>
      <path
         id="rect3607"
         style="font-variation-settings:normal;opacity:1;vector-effect:none;fill:#ff6785;fill-opacity:1;stroke:black;stroke-width:1.32291;stroke-linecap:round;stroke-linejoin:round;stroke-miterlimit:4;stroke-dasharray:none;stroke-dashoffset:0;stroke-opacity:1;stop-color:black;stop-opacity:1"
         d="m 26.610777,-240.56114 v 95.9621 a 59.401817,59.401817 0 0 1 58.05589,-46.8297 59.401817,59.401817 0 0 1 58.055893,46.82867 v -95.96107 z" />
    </g>
    <g
       inkscape:label="Layer 1"
       id="layer1-6"
       transform="translate(514.35679,399.96748)">
      <path
         id="path838-8"
         style="fill:purple;stroke:black;stroke-width:4.99999;stroke-linecap:round;stroke-linejoin:round;stroke-miterlimit:4;stroke-dasharray:none;stroke-opacity:1"
         inkscape:transform-center-x="-0.94837772"
         inkscape:transform-center-y="-6.9426843"
         d="m 322.46289,78.990234 c -1.28992,0.0104 -207.09765,152.069016 -207.48633,153.298826 -0.17859,0.56507 16.93368,52.37915 35.48047,108.00782 h -36.18164 v 60 h 56.24609 c 2.06075,6.13817 3.74769,11.12642 5.66797,16.83007 h -61.91406 v 60 h 422 v -60 h -62.84961 c 1.79541,-5.62984 3.4329,-10.74634 5.36719,-16.83007 h 57.48242 v -60 H 497.79102 C 515.78066,283.29946 532.5952,229.49549 532.4043,228.92383 531.99576,227.70044 323.75282,78.979837 322.46289,78.990234 Z"
         transform="matrix(0.26458334,0,0,0.26458334,0,-274.50003)" />
      <text
         xml:space="preserve"
         id="text840-9"
         style="font-style:normal;font-variant:normal;font-weight:bold;font-stretch:normal;font-size:22.5778px;line-height:125%;font-family:'Gill Sans MT';-inkscape-font-specification:'Gill Sans MT Bold';text-align:center;letter-spacing:0px;word-spacing:0px;white-space:pre;shape-inside:url(#rect842-0);fill:black;fill-opacity:1;stroke:none;stroke-width:0.264583px;stroke-linecap:butt;stroke-linejoin:miter;stroke-opacity:1;"
         x="34.616322"
         y="0"
         transform="translate(-2.6121053,-0.67696127)"><tspan
           x="17.607957"
           y="-117.52945"><tspan
             style="font-style:normal;font-variant:normal;font-weight:bold;font-stretch:normal;font-size:22.5778px;font-family:'Gill Sans MT';-inkscape-font-specification:'Gill Sans MT Bold';text-align:center;text-anchor:middle">PARAMETER</tspan></tspan></text>
    </g>
    <g
       inkscape:label="Layer 1"
       id="layer1-10"
       transform="translate(352.63591,399.76904)">
      <path
         sodipodi:type="star"
         style="fill:purple;stroke:black;stroke-width:2.39569;stroke-linecap:round;stroke-linejoin:round;stroke-miterlimit:4;stroke-dasharray:none;stroke-opacity:1"
         id="path838-6"
         sodipodi:sides="5"
         sodipodi:cx="121.80975"
         sodipodi:cy="-221.34612"
         sodipodi:r1="105.14475"
         sodipodi:r2="48.281712"
         sodipodi:arg1="0.83619714"
         sodipodi:arg2="1.4645156"
         inkscape:flatsided="true"
         inkscape:rounded="0.005"
         inkscape:randomized="0"
         d="m 192.2872,-143.31825 c -0.45863,0.41426 -122.371919,13.42029 -122.907626,13.11211 -0.535708,-0.30818 -50.578456,-112.23552 -50.450905,-112.84024 0.127551,-0.60472 91.112721,-82.78565 91.727261,-82.85121 0.61453,-0.0656 106.88921,61.07117 107.14146,61.63537 0.25226,0.5642 -25.05155,120.52971 -25.51019,120.94397 z"
         inkscape:transform-center-x="0.96746032"
         inkscape:transform-center-y="-5.3587042"
         transform="matrix(0.55225002,0,0,0.55216233,18.360857,-74.467779)" />
      <text
         xml:space="preserve"
         id="text840-1"
         style="font-style:normal;font-variant:normal;font-weight:bold;font-stretch:normal;font-size:22.5778px;line-height:125%;font-family:'Gill Sans MT';-inkscape-font-specification:'Gill Sans MT Bold';text-align:center;letter-spacing:0px;word-spacing:0px;white-space:pre;shape-inside:url(#rect842-6);fill:black;fill-opacity:1;stroke:none;stroke-width:0.264583px;stroke-linecap:butt;stroke-linejoin:miter;stroke-opacity:1;"
         x="34.616322"
         y="0"
         transform="translate(-2.6121053,-0.67696127)"><tspan
           x="31.630888"
           y="-117.52945"><tspan>REGISTER</tspan></tspan></text>
      <g
         id="g1742"
         transform="matrix(0.84164111,0,0,0.84162324,5.7593774,-33.886264)"
         style="stroke-width:1.18817">
        <ellipse
           style="fill:purple;stroke:black;stroke-width:1.57185;stroke-linecap:round;stroke-linejoin:round"
           id="path1501"
           cx="134.73535"
           cy="-154.20299"
           rx="25.8601"
           ry="25.860188" />
        <ellipse
           style="fill:purple;stroke:black;stroke-width:1.57185;stroke-linecap:round;stroke-linejoin:round"
           id="circle1518"
           cx="254.37129"
           cy="62.564041"
           transform="matrix(0.34182675,-0.93976299,0.93976226,0.34182876,0,0)"
           rx="25.860176"
           ry="25.860111" />
        <ellipse
           style="fill:purple;stroke:black;stroke-width:1.57185;stroke-linecap:round;stroke-linejoin:round"
           id="circle1532"
           cx="88.297287"
           cy="250.34241"
           transform="matrix(-0.7755053,-0.63134106,0.63133854,-0.77550735,0,0)"
           rx="25.860136"
           ry="25.860153" />
        <ellipse
           style="fill:purple;stroke:black;stroke-width:1.57185;stroke-linecap:round;stroke-linejoin:round"
           id="circle1546"
           cx="-147.90282"
           cy="150.14908"
           transform="matrix(-0.83140204,0.55567134,-0.55566879,-0.83140375,0,0)"
           rx="25.860128"
           ry="25.860161" />
        <ellipse
           style="fill:purple;stroke:black;stroke-width:1.57185;stroke-linecap:round;stroke-linejoin:round"
           id="circle1560"
           cx="-121.86941"
           cy="-104.79867"
           transform="matrix(0.27206436,0.96227906,-0.96227859,0.27206602,0,0)"
           rx="25.86018"
           ry="25.860107" />
      </g>
    </g>
    <g
       id="g4809"
       transform="translate(8.6057684)">
      <g
         inkscape:label="Layer 1"
         id="layer1-2"
         transform="translate(463.50988,45.414336)">
        <path
           sodipodi:type="star"
           style="fill:lime;stroke:black;stroke-width:2.39569;stroke-linecap:round;stroke-linejoin:round;stroke-miterlimit:4;stroke-dasharray:none;stroke-opacity:1"
           id="path838-0"
           sodipodi:sides="5"
           sodipodi:cx="121.80975"
           sodipodi:cy="-221.34612"
           sodipodi:r1="119.2141"
           sodipodi:r2="48.281712"
           sodipodi:arg1="0.89490573"
           sodipodi:arg2="1.5232243"
           inkscape:flatsided="false"
           inkscape:rounded="0.05"
           inkscape:randomized="0"
           d="m 196.38919,-128.34122 c -3.31678,2.65968 -68.0368,-44.97998 -72.28344,-44.77781 -4.24665,0.20218 -64.148154,53.77482 -67.702597,51.44226 -3.554443,-2.33255 21.753979,-78.60641 20.249414,-82.58274 -1.504564,-3.97632 -70.9657551,-44.39118 -69.8457486,-48.49246 1.1200066,-4.10127 81.4814936,-3.60145 84.7982666,-6.26113 3.316773,-2.65968 20.288905,-81.21007 24.535545,-81.41225 4.24665,-0.20217 28.60435,76.3806 32.1588,78.71315 3.55444,2.33255 83.50498,-5.7994 85.00955,-1.82308 1.50456,3.97633 -63.80303,50.80726 -64.92304,54.90854 -1.12001,4.10127 31.32002,77.62584 28.00325,80.28552 z"
           inkscape:transform-center-x="0.96746032"
           inkscape:transform-center-y="-5.3587042"
           transform="matrix(0.55225002,0,0,0.55216233,18.360857,-74.467779)" />
        <text
           xml:space="preserve"
           id="text840-6"
           style="font-style:normal;font-variant:normal;font-weight:bold;font-stretch:normal;font-size:22.5778px;line-height:125%;font-family:'Gill Sans MT';-inkscape-font-specification:'Gill Sans MT Bold';text-align:center;letter-spacing:0px;word-spacing:0px;white-space:pre;shape-inside:url(#rect842-1);fill:black;fill-opacity:1;stroke:none;stroke-width:0.264583px;stroke-linecap:butt;stroke-linejoin:miter;stroke-opacity:1;"
           x="34.616322"
           y="0"
           transform="translate(-2.6121053,-0.67696127)"><tspan
             x="24.40996"
             y="-117.52945"><tspan>EXPANDER</tspan></tspan></text>
      </g>
      <g
         id="layer1-65"
         transform="translate(49.975709,45.215898)">
        <text
           xml:space="preserve"
           id="text840-63"
           style="font-style:normal;font-variant:normal;font-weight:bold;font-stretch:normal;font-size:22.5778px;line-height:125%;font-family:'Gill Sans MT';-inkscape-font-specification:'Gill Sans MT Bold';text-align:center;letter-spacing:0px;word-spacing:0px;white-space:pre;shape-inside:url(#rect842-4);fill:black;fill-opacity:1;stroke:none;stroke-width:0.264583px;stroke-linecap:butt;stroke-linejoin:miter;stroke-opacity:1;"
           x="34.616322"
           y="0"
           transform="translate(-2.6121053,-0.67696127)"><tspan
             x="39.618005"
             y="-117.52945"><tspan>SOURCE</tspan></tspan></text>
        <path
           id="path3629"
           style="font-variation-settings:normal;vector-effect:none;fill:#4d4d4d;fill-opacity:1;stroke:black;stroke-width:1.32292;stroke-linecap:butt;stroke-linejoin:miter;stroke-miterlimit:4;stroke-dasharray:none;stroke-dashoffset:0;stroke-opacity:1;stop-color:black"
           d="m 83.517507,-253.28135 a 53.640134,49.861731 0 0 0 -53.520487,49.86209 53.640134,49.861731 0 0 0 53.639892,49.86211 53.640134,49.861731 0 0 0 3.221021,-0.0908 c 0.32384,0.0554 0.654658,0.0908 0.994848,0.0908 h 43.602659 c 3.22499,0 5.82129,-2.59235 5.82129,-5.81245 v -1.78459 c 0,-3.22009 -2.5963,-5.81244 -5.82129,-5.81244 h -11.22073 a 53.640134,49.861731 0 0 0 17.04202,-36.45263 53.640134,49.861731 0 0 0 -53.639818,-49.86209 53.640134,49.861731 0 0 0 -0.119469,0 z" />
      </g>
      <g
         inkscape:label="Layer 1"
         id="layer1-3"
         transform="translate(257.04311,45.215898)">
        <text
           xml:space="preserve"
           id="text840-8"
           style="font-style:normal;font-variant:normal;font-weight:bold;font-stretch:normal;font-size:22.5778px;line-height:125%;font-family:'Gill Sans MT';-inkscape-font-specification:'Gill Sans MT Bold';text-align:center;letter-spacing:0px;word-spacing:0px;white-space:pre;shape-inside:url(#rect842-8);fill:black;fill-opacity:1;stroke:none;stroke-width:0.264583px;stroke-linecap:butt;stroke-linejoin:miter;stroke-opacity:1;"
           x="34.616322"
           y="0"
           transform="translate(-2.6121053,-0.67696127)"><tspan
             x="21.653881"
             y="-117.52945"><tspan>TOKENISER</tspan></tspan></text>
        <path
           id="path2344"
           style="font-variation-settings:normal;opacity:1;vector-effect:none;fill:yellow;fill-opacity:1;fill-rule:evenodd;stroke:black;stroke-width:1.32292;stroke-linecap:round;stroke-linejoin:round;stroke-miterlimit:4;stroke-dasharray:none;stroke-dashoffset:0;stroke-opacity:1;stop-color:black;stop-opacity:1"
           d="m 120.65469,-249.46756 c -44.702901,0.67736 -46.953645,47.59268 -106.167987,9.99352 l 0.610282,28.79136 -0.627597,0.001 v 46.78003 c 80.430296,29.15955 68.874689,-48.67279 140.378782,-3.27005 l -0.61026,-28.79134 0.62604,-0.001 v -46.78007 c -13.82391,-5.01178 -24.93132,-6.86404 -34.20926,-6.72345 z" />
      </g>
    </g>
    <use
       x="0"
       y="0"
       xlink:href="#layer1-9"
       id="use4773"
       transform="translate(-165.39831)"
       width="100%"
       height="100%" />
    <use
       x="0"
       y="0"
       xlink:href="#use4773"
       id="use4775"
       transform="translate(661.5932)"
       width="100%"
       height="100%" />
    <path
       id="path4787"
       style="font-style:normal;font-variant:normal;font-weight:normal;font-stretch:normal;font-size:50.8px;line-height:125%;font-family:Garamond;-inkscape-font-specification:Garamond;text-align:start;letter-spacing:0px;word-spacing:0px;text-anchor:start;white-space:pre;fill:purple;fill-opacity:1;stroke:none;stroke-width:0.264583px;stroke-linecap:butt;stroke-linejoin:miter;stroke-opacity:1"
       d="m 956.02302,219.64672 q 0,-3.00075 2.18237,-5.25134 2.25057,-2.25057 5.18313,-2.25057 2.86438,0 4.84217,2.11417 1.97776,2.11419 1.97776,5.31955 0,3.20537 -2.11416,5.38774 -2.04598,2.18238 -4.97857,2.18238 -2.86435,0 -4.97854,-2.18238 -2.11416,-2.25059 -2.11416,-5.31955 z m -30.55327,0 q 0,-3.00075 2.18237,-5.25134 2.25057,-2.25057 5.18313,-2.25057 2.86438,0 4.84217,2.11417 1.97776,2.11419 1.97776,5.31955 0,3.20537 -2.11416,5.38774 -2.04598,2.18238 -4.97857,2.18238 -2.86435,0 -4.97854,-2.18238 -2.11416,-2.25059 -2.11416,-5.31955 z m -30.55327,0 q 0,-3.00075 2.18237,-5.25134 2.25057,-2.25057 5.18313,-2.25057 2.86438,0 4.84217,2.11417 1.97776,2.11419 1.97776,5.31955 0,3.20537 -2.11416,5.38774 -2.04598,2.18238 -4.97857,2.18238 -2.86435,0 -4.97854,-2.18238 -2.11416,-2.25059 -2.11416,-5.31955 z" />
    <rect
       style="fill:none;stroke:black;stroke-width:3.96875007;stroke-miterlimit:4;stroke-dasharray:3.96875007,7.93750014;stroke-dashoffset:0;stroke-opacity:1"
       id="rect4792"
       width="655.73889"
       height="237.61659"
       x="27.719978"
       y="-264.04752"
       rx="66.145836"
       ry="66.145836" />
    <text
       xml:space="preserve"
       id="text840-4-6"
       style="font-style:normal;font-variant:normal;font-weight:bold;font-stretch:normal;font-size:22.5778px;line-height:125%;font-family:'Gill Sans MT';-inkscape-font-specification:'Gill Sans MT Bold';text-align:center;letter-spacing:0px;word-spacing:0px;white-space:pre;shape-inside:url(#rect842-5-5);fill:maroon;fill-opacity:1;stroke:none;stroke-width:0.264583px;stroke-linecap:butt;stroke-linejoin:miter;stroke-opacity:1;"
       x="34.616322"
       y="0"
       transform="translate(637.89458,-13.408446)"><tspan
         x="47.737414"
         y="-117.52945"><tspan
           style="fill:maroon">pipeline</tspan></tspan></text>
    <text
       xml:space="preserve"
       id="text840-63-1"
       style="font-style:normal;font-variant:normal;font-weight:bold;font-stretch:normal;font-size:22.5778px;line-height:125%;font-family:'Gill Sans MT';-inkscape-font-specification:'Gill Sans MT Bold';text-align:center;letter-spacing:0px;word-spacing:0px;white-space:pre;shape-inside:url(#rect842-4-1);fill:black;fill-opacity:1;stroke:none;stroke-width:0.26458334;stroke-linecap:butt;stroke-linejoin:miter;stroke-opacity:1;stroke-miterlimit:4;stroke-dasharray:none;"
       x="34.616322"
       y="0"
       transform="translate(268.40943,-109.75524)"><tspan
         x="40.21883"
         y="-117.52945"><tspan
           style="stroke-width:0.264583;stroke-miterlimit:4;stroke-dasharray:none">TOKENS</tspan></tspan></text>
  </g>
</svg>
